<?xml version="1.0" encoding="utf-8"?>
<svg width="410" height="410" viewBox="0 0 410 410" xmlns="http://www.w3.org/2000/svg" xmlns:xlink="http://www.w3.org/1999/xlink">
<rect width="410" height="410" fill="#ffffff"/>
<defs>
<symbol id="p" viewBox="0 0 1 1">
<rect width="1" height="1"/>
</symbol>
</defs>
<g shape-rendering="crispEdges" fill="#000000">
<use x="0.000000000000" y="0.000000000000" width="10.000000000000" height="10.000000000000" xlink:href="#p" />
<use x="10.000000000000" y="0.000000000000" width="10.000000000000" height="10.000000000000" xlink:href="#p" />
<use x="20.000000000000" y="0.000000000000" width="10.000000000000" height="10.000000000000" xlink:href="#p" />
<use x="30.000000000000" y="0.000000000000" width="10.000000000000" height="10.000000000000" xlink:href="#p" />
<use x="40.000000000000" y="0.000000000000" width="10.000000000000" height="10.000000000000" xlink:href="#p" />
<use x="50.000000000000" y="0.000000000000" width="10.000000000000" height="10.000000000000" xlink:href="#p" />
<use x="60.000000000000" y="0.000000000000" width="10.000000000000" height="10.000000000000" xlink:href="#p" />
<use x="80.000000000000" y="0.000000000000" width="10.000000000000" height="10.000000000000" xlink:href="#p" />
<use x="100.000000000000" y="0.000000000000" width="10.000000000000" height="10.000000000000" xlink:href="#p" />
<use x="120.000000000000" y="0.000000000000" width="10.000000000000" height="10.000000000000" xlink:href="#p" />
<use x="130.000000000000" y="0.000000000000" width="10.000000000000" height="10.000000000000" xlink:href="#p" />
<use x="150.000000000000" y="0.000000000000" width="10.000000000000" height="10.000000000000" xlink:href="#p" />
<use x="160.000000000000" y="0.000000000000" width="10.000000000000" height="10.000000000000" xlink:href="#p" />
<use x="180.000000000000" y="0.000000000000" width="10.000000000000" height="10.000000000000" xlink:href="#p" />
<use x="200.000000000000" y="0.000000000000" width="10.000000000000" height="10.000000000000" xlink:href="#p" />
<use x="230.000000000000" y="0.000000000000" width="10.000000000000" height="10.000000000000" xlink:href="#p" />
<use x="240.000000000000" y="0.000000000000" width="10.000000000000" height="10.000000000000" xlink:href="#p" />
<use x="270.000000000000" y="0.000000000000" width="10.000000000000" height="10.000000000000" xlink:href="#p" />
<use x="280.000000000000" y="0.000000000000" width="10.000000000000" height="10.000000000000" xlink:href="#p" />
<use x="290.000000000000" y="0.000000000000" width="10.000000000000" height="10.000000000000" xlink:href="#p" />
<use x="310.000000000000" y="0.000000000000" width="10.000000000000" height="10.000000000000" xlink:href="#p" />
<use x="340.000000000000" y="0.000000000000" width="10.000000000000" height="10.000000000000" xlink:href="#p" />
<use x="350.000000000000" y="0.000000000000" width="10.000000000000" height="10.000000000000" xlink:href="#p" />
<use x="360.000000000000" y="0.000000000000" width="10.000000000000" height="10.000000000000" xlink:href="#p" />
<use x="370.000000000000" y="0.000000000000" width="10.000000000000" height="10.000000000000" xlink:href="#p" />
<use x="380.000000000000" y="0.000000000000" width="10.000000000000" height="10.000000000000" xlink:href="#p" />
<use x="390.000000000000" y="0.000000000000" width="10.000000000000" height="10.000000000000" xlink:href="#p" />
<use x="400.000000000000" y="0.000000000000" width="10.000000000000" height="10.000000000000" xlink:href="#p" />
<use x="0.000000000000" y="10.000000000000" width="10.000000000000" height="10.000000000000" xlink:href="#p" />
<use x="60.000000000000" y="10.000000000000" width="10.000000000000" height="10.000000000000" xlink:href="#p" />
<use x="90.000000000000" y="10.000000000000" width="10.000000000000" height="10.000000000000" xlink:href="#p" />
<use x="100.000000000000" y="10.000000000000" width="10.000000000000" height="10.000000000000" xlink:href="#p" />
<use x="120.000000000000" y="10.000000000000" width="10.000000000000" height="10.000000000000" xlink:href="#p" />
<use x="130.000000000000" y="10.000000000000" width="10.000000000000" height="10.000000000000" xlink:href="#p" />
<use x="170.000000000000" y="10.000000000000" width="10.000000000000" height="10.000000000000" xlink:href="#p" />
<use x="210.000000000000" y="10.000000000000" width="10.000000000000" height="10.000000000000" xlink:href="#p" />
<use x="230.000000000000" y="10.000000000000" width="10.000000000000" height="10.000000000000" xlink:href="#p" />
<use x="250.000000000000" y="10.000000000000" width="10.000000000000" height="10.000000000000" xlink:href="#p" />
<use x="270.000000000000" y="10.000000000000" width="10.000000000000" height="10.000000000000" xlink:href="#p" />
<use x="280.000000000000" y="10.000000000000" width="10.000000000000" height="10.000000000000" xlink:href="#p" />
<use x="300.000000000000" y="10.000000000000" width="10.000000000000" height="10.000000000000" xlink:href="#p" />
<use x="310.000000000000" y="10.000000000000" width="10.000000000000" height="10.000000000000" xlink:href="#p" />
<use x="340.000000000000" y="10.000000000000" width="10.000000000000" height="10.000000000000" xlink:href="#p" />
<use x="400.000000000000" y="10.000000000000" width="10.000000000000" height="10.000000000000" xlink:href="#p" />
<use x="0.000000000000" y="20.000000000000" width="10.000000000000" height="10.000000000000" xlink:href="#p" />
<use x="20.000000000000" y="20.000000000000" width="10.000000000000" height="10.000000000000" xlink:href="#p" />
<use x="30.000000000000" y="20.000000000000" width="10.000000000000" height="10.000000000000" xlink:href="#p" />
<use x="40.000000000000" y="20.000000000000" width="10.000000000000" height="10.000000000000" xlink:href="#p" />
<use x="60.000000000000" y="20.000000000000" width="10.000000000000" height="10.000000000000" xlink:href="#p" />
<use x="90.000000000000" y="20.000000000000" width="10.000000000000" height="10.000000000000" xlink:href="#p" />
<use x="100.000000000000" y="20.000000000000" width="10.000000000000" height="10.000000000000" xlink:href="#p" />
<use x="110.000000000000" y="20.000000000000" width="10.000000000000" height="10.000000000000" xlink:href="#p" />
<use x="120.000000000000" y="20.000000000000" width="10.000000000000" height="10.000000000000" xlink:href="#p" />
<use x="130.000000000000" y="20.000000000000" width="10.000000000000" height="10.000000000000" xlink:href="#p" />
<use x="180.000000000000" y="20.000000000000" width="10.000000000000" height="10.000000000000" xlink:href="#p" />
<use x="210.000000000000" y="20.000000000000" width="10.000000000000" height="10.000000000000" xlink:href="#p" />
<use x="240.000000000000" y="20.000000000000" width="10.000000000000" height="10.000000000000" xlink:href="#p" />
<use x="280.000000000000" y="20.000000000000" width="10.000000000000" height="10.000000000000" xlink:href="#p" />
<use x="290.000000000000" y="20.000000000000" width="10.000000000000" height="10.000000000000" xlink:href="#p" />
<use x="300.000000000000" y="20.000000000000" width="10.000000000000" height="10.000000000000" xlink:href="#p" />
<use x="320.000000000000" y="20.000000000000" width="10.000000000000" height="10.000000000000" xlink:href="#p" />
<use x="340.000000000000" y="20.000000000000" width="10.000000000000" height="10.000000000000" xlink:href="#p" />
<use x="360.000000000000" y="20.000000000000" width="10.000000000000" height="10.000000000000" xlink:href="#p" />
<use x="370.000000000000" y="20.000000000000" width="10.000000000000" height="10.000000000000" xlink:href="#p" />
<use x="380.000000000000" y="20.000000000000" width="10.000000000000" height="10.000000000000" xlink:href="#p" />
<use x="400.000000000000" y="20.000000000000" width="10.000000000000" height="10.000000000000" xlink:href="#p" />
<use x="0.000000000000" y="30.000000000000" width="10.000000000000" height="10.000000000000" xlink:href="#p" />
<use x="20.000000000000" y="30.000000000000" width="10.000000000000" height="10.000000000000" xlink:href="#p" />
<use x="30.000000000000" y="30.000000000000" width="10.000000000000" height="10.000000000000" xlink:href="#p" />
<use x="40.000000000000" y="30.000000000000" width="10.000000000000" height="10.000000000000" xlink:href="#p" />
<use x="60.000000000000" y="30.000000000000" width="10.000000000000" height="10.000000000000" xlink:href="#p" />
<use x="80.000000000000" y="30.000000000000" width="10.000000000000" height="10.000000000000" xlink:href="#p" />
<use x="90.000000000000" y="30.000000000000" width="10.000000000000" height="10.000000000000" xlink:href="#p" />
<use x="100.000000000000" y="30.000000000000" width="10.000000000000" height="10.000000000000" xlink:href="#p" />
<use x="120.000000000000" y="30.000000000000" width="10.000000000000" height="10.000000000000" xlink:href="#p" />
<use x="130.000000000000" y="30.000000000000" width="10.000000000000" height="10.000000000000" xlink:href="#p" />
<use x="140.000000000000" y="30.000000000000" width="10.000000000000" height="10.000000000000" xlink:href="#p" />
<use x="150.000000000000" y="30.000000000000" width="10.000000000000" height="10.000000000000" xlink:href="#p" />
<use x="160.000000000000" y="30.000000000000" width="10.000000000000" height="10.000000000000" xlink:href="#p" />
<use x="170.000000000000" y="30.000000000000" width="10.000000000000" height="10.000000000000" xlink:href="#p" />
<use x="180.000000000000" y="30.000000000000" width="10.000000000000" height="10.000000000000" xlink:href="#p" />
<use x="190.000000000000" y="30.000000000000" width="10.000000000000" height="10.000000000000" xlink:href="#p" />
<use x="200.000000000000" y="30.000000000000" width="10.000000000000" height="10.000000000000" xlink:href="#p" />
<use x="250.000000000000" y="30.000000000000" width="10.000000000000" height="10.000000000000" xlink:href="#p" />
<use x="290.000000000000" y="30.000000000000" width="10.000000000000" height="10.000000000000" xlink:href="#p" />
<use x="300.000000000000" y="30.000000000000" width="10.000000000000" height="10.000000000000" xlink:href="#p" />
<use x="340.000000000000" y="30.000000000000" width="10.000000000000" height="10.000000000000" xlink:href="#p" />
<use x="360.000000000000" y="30.000000000000" width="10.000000000000" height="10.000000000000" xlink:href="#p" />
<use x="370.000000000000" y="30.000000000000" width="10.000000000000" height="10.000000000000" xlink:href="#p" />
<use x="380.000000000000" y="30.000000000000" width="10.000000000000" height="10.000000000000" xlink:href="#p" />
<use x="400.000000000000" y="30.000000000000" width="10.000000000000" height="10.000000000000" xlink:href="#p" />
<use x="0.000000000000" y="40.000000000000" width="10.000000000000" height="10.000000000000" xlink:href="#p" />
<use x="20.000000000000" y="40.000000000000" width="10.000000000000" height="10.000000000000" xlink:href="#p" />
<use x="30.000000000000" y="40.000000000000" width="10.000000000000" height="10.000000000000" xlink:href="#p" />
<use x="40.000000000000" y="40.000000000000" width="10.000000000000" height="10.000000000000" xlink:href="#p" />
<use x="60.000000000000" y="40.000000000000" width="10.000000000000" height="10.000000000000" xlink:href="#p" />
<use x="120.000000000000" y="40.000000000000" width="10.000000000000" height="10.000000000000" xlink:href="#p" />
<use x="130.000000000000" y="40.000000000000" width="10.000000000000" height="10.000000000000" xlink:href="#p" />
<use x="150.000000000000" y="40.000000000000" width="10.000000000000" height="10.000000000000" xlink:href="#p" />
<use x="170.000000000000" y="40.000000000000" width="10.000000000000" height="10.000000000000" xlink:href="#p" />
<use x="220.000000000000" y="40.000000000000" width="10.000000000000" height="10.000000000000" xlink:href="#p" />
<use x="240.000000000000" y="40.000000000000" width="10.000000000000" height="10.000000000000" xlink:href="#p" />
<use x="270.000000000000" y="40.000000000000" width="10.000000000000" height="10.000000000000" xlink:href="#p" />
<use x="280.000000000000" y="40.000000000000" width="10.000000000000" height="10.000000000000" xlink:href="#p" />
<use x="300.000000000000" y="40.000000000000" width="10.000000000000" height="10.000000000000" xlink:href="#p" />
<use x="310.000000000000" y="40.000000000000" width="10.000000000000" height="10.000000000000" xlink:href="#p" />
<use x="340.000000000000" y="40.000000000000" width="10.000000000000" height="10.000000000000" xlink:href="#p" />
<use x="360.000000000000" y="40.000000000000" width="10.000000000000" height="10.000000000000" xlink:href="#p" />
<use x="370.000000000000" y="40.000000000000" width="10.000000000000" height="10.000000000000" xlink:href="#p" />
<use x="380.000000000000" y="40.000000000000" width="10.000000000000" height="10.000000000000" xlink:href="#p" />
<use x="400.000000000000" y="40.000000000000" width="10.000000000000" height="10.000000000000" xlink:href="#p" />
<use x="0.000000000000" y="50.000000000000" width="10.000000000000" height="10.000000000000" xlink:href="#p" />
<use x="60.000000000000" y="50.000000000000" width="10.000000000000" height="10.000000000000" xlink:href="#p" />
<use x="100.000000000000" y="50.000000000000" width="10.000000000000" height="10.000000000000" xlink:href="#p" />
<use x="110.000000000000" y="50.000000000000" width="10.000000000000" height="10.000000000000" xlink:href="#p" />
<use x="130.000000000000" y="50.000000000000" width="10.000000000000" height="10.000000000000" xlink:href="#p" />
<use x="170.000000000000" y="50.000000000000" width="10.000000000000" height="10.000000000000" xlink:href="#p" />
<use x="210.000000000000" y="50.000000000000" width="10.000000000000" height="10.000000000000" xlink:href="#p" />
<use x="240.000000000000" y="50.000000000000" width="10.000000000000" height="10.000000000000" xlink:href="#p" />
<use x="250.000000000000" y="50.000000000000" width="10.000000000000" height="10.000000000000" xlink:href="#p" />
<use x="270.000000000000" y="50.000000000000" width="10.000000000000" height="10.000000000000" xlink:href="#p" />
<use x="280.000000000000" y="50.000000000000" width="10.000000000000" height="10.000000000000" xlink:href="#p" />
<use x="290.000000000000" y="50.000000000000" width="10.000000000000" height="10.000000000000" xlink:href="#p" />
<use x="300.000000000000" y="50.000000000000" width="10.000000000000" height="10.000000000000" xlink:href="#p" />
<use x="310.000000000000" y="50.000000000000" width="10.000000000000" height="10.000000000000" xlink:href="#p" />
<use x="320.000000000000" y="50.000000000000" width="10.000000000000" height="10.000000000000" xlink:href="#p" />
<use x="340.000000000000" y="50.000000000000" width="10.000000000000" height="10.000000000000" xlink:href="#p" />
<use x="400.000000000000" y="50.000000000000" width="10.000000000000" height="10.000000000000" xlink:href="#p" />
<use x="0.000000000000" y="60.000000000000" width="10.000000000000" height="10.000000000000" xlink:href="#p" />
<use x="10.000000000000" y="60.000000000000" width="10.000000000000" height="10.000000000000" xlink:href="#p" />
<use x="20.000000000000" y="60.000000000000" width="10.000000000000" height="10.000000000000" xlink:href="#p" />
<use x="30.000000000000" y="60.000000000000" width="10.000000000000" height="10.000000000000" xlink:href="#p" />
<use x="40.000000000000" y="60.000000000000" width="10.000000000000" height="10.000000000000" xlink:href="#p" />
<use x="50.000000000000" y="60.000000000000" width="10.000000000000" height="10.000000000000" xlink:href="#p" />
<use x="60.000000000000" y="60.000000000000" width="10.000000000000" height="10.000000000000" xlink:href="#p" />
<use x="80.000000000000" y="60.000000000000" width="10.000000000000" height="10.000000000000" xlink:href="#p" />
<use x="100.000000000000" y="60.000000000000" width="10.000000000000" height="10.000000000000" xlink:href="#p" />
<use x="120.000000000000" y="60.000000000000" width="10.000000000000" height="10.000000000000" xlink:href="#p" />
<use x="140.000000000000" y="60.000000000000" width="10.000000000000" height="10.000000000000" xlink:href="#p" />
<use x="160.000000000000" y="60.000000000000" width="10.000000000000" height="10.000000000000" xlink:href="#p" />
<use x="180.000000000000" y="60.000000000000" width="10.000000000000" height="10.000000000000" xlink:href="#p" />
<use x="200.000000000000" y="60.000000000000" width="10.000000000000" height="10.000000000000" xlink:href="#p" />
<use x="220.000000000000" y="60.000000000000" width="10.000000000000" height="10.000000000000" xlink:href="#p" />
<use x="240.000000000000" y="60.000000000000" width="10.000000000000" height="10.000000000000" xlink:href="#p" />
<use x="260.000000000000" y="60.000000000000" width="10.000000000000" height="10.000000000000" xlink:href="#p" />
<use x="280.000000000000" y="60.000000000000" width="10.000000000000" height="10.000000000000" xlink:href="#p" />
<use x="300.000000000000" y="60.000000000000" width="10.000000000000" height="10.000000000000" xlink:href="#p" />
<use x="320.000000000000" y="60.000000000000" width="10.000000000000" height="10.000000000000" xlink:href="#p" />
<use x="340.000000000000" y="60.000000000000" width="10.000000000000" height="10.000000000000" xlink:href="#p" />
<use x="350.000000000000" y="60.000000000000" width="10.000000000000" height="10.000000000000" xlink:href="#p" />
<use x="360.000000000000" y="60.000000000000" width="10.000000000000" height="10.000000000000" xlink:href="#p" />
<use x="370.000000000000" y="60.000000000000" width="10.000000000000" height="10.000000000000" xlink:href="#p" />
<use x="380.000000000000" y="60.000000000000" width="10.000000000000" height="10.000000000000" xlink:href="#p" />
<use x="390.000000000000" y="60.000000000000" width="10.000000000000" height="10.000000000000" xlink:href="#p" />
<use x="400.000000000000" y="60.000000000000" width="10.000000000000" height="10.000000000000" xlink:href="#p" />
<use x="100.000000000000" y="70.000000000000" width="10.000000000000" height="10.000000000000" xlink:href="#p" />
<use x="110.000000000000" y="70.000000000000" width="10.000000000000" height="10.000000000000" xlink:href="#p" />
<use x="120.000000000000" y="70.000000000000" width="10.000000000000" height="10.000000000000" xlink:href="#p" />
<use x="130.000000000000" y="70.000000000000" width="10.000000000000" height="10.000000000000" xlink:href="#p" />
<use x="140.000000000000" y="70.000000000000" width="10.000000000000" height="10.000000000000" xlink:href="#p" />
<use x="150.000000000000" y="70.000000000000" width="10.000000000000" height="10.000000000000" xlink:href="#p" />
<use x="160.000000000000" y="70.000000000000" width="10.000000000000" height="10.000000000000" xlink:href="#p" />
<use x="170.000000000000" y="70.000000000000" width="10.000000000000" height="10.000000000000" xlink:href="#p" />
<use x="200.000000000000" y="70.000000000000" width="10.000000000000" height="10.000000000000" xlink:href="#p" />
<use x="210.000000000000" y="70.000000000000" width="10.000000000000" height="10.000000000000" xlink:href="#p" />
<use x="260.000000000000" y="70.000000000000" width="10.000000000000" height="10.000000000000" xlink:href="#p" />
<use x="270.000000000000" y="70.000000000000" width="10.000000000000" height="10.000000000000" xlink:href="#p" />
<use x="290.000000000000" y="70.000000000000" width="10.000000000000" height="10.000000000000" xlink:href="#p" />
<use x="300.000000000000" y="70.000000000000" width="10.000000000000" height="10.000000000000" xlink:href="#p" />
<use x="320.000000000000" y="70.000000000000" width="10.000000000000" height="10.000000000000" xlink:href="#p" />
<use x="20.000000000000" y="80.000000000000" width="10.000000000000" height="10.000000000000" xlink:href="#p" />
<use x="40.000000000000" y="80.000000000000" width="10.000000000000" height="10.000000000000" xlink:href="#p" />
<use x="50.000000000000" y="80.000000000000" width="10.000000000000" height="10.000000000000" xlink:href="#p" />
<use x="60.000000000000" y="80.000000000000" width="10.000000000000" height="10.000000000000" xlink:href="#p" />
<use x="80.000000000000" y="80.000000000000" width="10.000000000000" height="10.000000000000" xlink:href="#p" />
<use x="120.000000000000" y="80.000000000000" width="10.000000000000" height="10.000000000000" xlink:href="#p" />
<use x="130.000000000000" y="80.000000000000" width="10.000000000000" height="10.000000000000" xlink:href="#p" />
<use x="140.000000000000" y="80.000000000000" width="10.000000000000" height="10.000000000000" xlink:href="#p" />
<use x="160.000000000000" y="80.000000000000" width="10.000000000000" height="10.000000000000" xlink:href="#p" />
<use x="180.000000000000" y="80.000000000000" width="10.000000000000" height="10.000000000000" xlink:href="#p" />
<use x="200.000000000000" y="80.000000000000" width="10.000000000000" height="10.000000000000" xlink:href="#p" />
<use x="230.000000000000" y="80.000000000000" width="10.000000000000" height="10.000000000000" xlink:href="#p" />
<use x="240.000000000000" y="80.000000000000" width="10.000000000000" height="10.000000000000" xlink:href="#p" />
<use x="250.000000000000" y="80.000000000000" width="10.000000000000" height="10.000000000000" xlink:href="#p" />
<use x="260.000000000000" y="80.000000000000" width="10.000000000000" height="10.000000000000" xlink:href="#p" />
<use x="270.000000000000" y="80.000000000000" width="10.000000000000" height="10.000000000000" xlink:href="#p" />
<use x="280.000000000000" y="80.000000000000" width="10.000000000000" height="10.000000000000" xlink:href="#p" />
<use x="290.000000000000" y="80.000000000000" width="10.000000000000" height="10.000000000000" xlink:href="#p" />
<use x="310.000000000000" y="80.000000000000" width="10.000000000000" height="10.000000000000" xlink:href="#p" />
<use x="320.000000000000" y="80.000000000000" width="10.000000000000" height="10.000000000000" xlink:href="#p" />
<use x="330.000000000000" y="80.000000000000" width="10.000000000000" height="10.000000000000" xlink:href="#p" />
<use x="370.000000000000" y="80.000000000000" width="10.000000000000" height="10.000000000000" xlink:href="#p" />
<use x="400.000000000000" y="80.000000000000" width="10.000000000000" height="10.000000000000" xlink:href="#p" />
<use x="0.000000000000" y="90.000000000000" width="10.000000000000" height="10.000000000000" xlink:href="#p" />
<use x="20.000000000000" y="90.000000000000" width="10.000000000000" height="10.000000000000" xlink:href="#p" />
<use x="50.000000000000" y="90.000000000000" width="10.000000000000" height="10.000000000000" xlink:href="#p" />
<use x="90.000000000000" y="90.000000000000" width="10.000000000000" height="10.000000000000" xlink:href="#p" />
<use x="100.000000000000" y="90.000000000000" width="10.000000000000" height="10.000000000000" xlink:href="#p" />
<use x="110.000000000000" y="90.000000000000" width="10.000000000000" height="10.000000000000" xlink:href="#p" />
<use x="130.000000000000" y="90.000000000000" width="10.000000000000" height="10.000000000000" xlink:href="#p" />
<use x="140.000000000000" y="90.000000000000" width="10.000000000000" height="10.000000000000" xlink:href="#p" />
<use x="160.000000000000" y="90.000000000000" width="10.000000000000" height="10.000000000000" xlink:href="#p" />
<use x="170.000000000000" y="90.000000000000" width="10.000000000000" height="10.000000000000" xlink:href="#p" />
<use x="190.000000000000" y="90.000000000000" width="10.000000000000" height="10.000000000000" xlink:href="#p" />
<use x="230.000000000000" y="90.000000000000" width="10.000000000000" height="10.000000000000" xlink:href="#p" />
<use x="260.000000000000" y="90.000000000000" width="10.000000000000" height="10.000000000000" xlink:href="#p" />
<use x="320.000000000000" y="90.000000000000" width="10.000000000000" height="10.000000000000" xlink:href="#p" />
<use x="360.000000000000" y="90.000000000000" width="10.000000000000" height="10.000000000000" xlink:href="#p" />
<use x="370.000000000000" y="90.000000000000" width="10.000000000000" height="10.000000000000" xlink:href="#p" />
<use x="380.000000000000" y="90.000000000000" width="10.000000000000" height="10.000000000000" xlink:href="#p" />
<use x="400.000000000000" y="90.000000000000" width="10.000000000000" height="10.000000000000" xlink:href="#p" />
<use x="30.000000000000" y="100.000000000000" width="10.000000000000" height="10.000000000000" xlink:href="#p" />
<use x="40.000000000000" y="100.000000000000" width="10.000000000000" height="10.000000000000" xlink:href="#p" />
<use x="50.000000000000" y="100.000000000000" width="10.000000000000" height="10.000000000000" xlink:href="#p" />
<use x="60.000000000000" y="100.000000000000" width="10.000000000000" height="10.000000000000" xlink:href="#p" />
<use x="70.000000000000" y="100.000000000000" width="10.000000000000" height="10.000000000000" xlink:href="#p" />
<use x="90.000000000000" y="100.000000000000" width="10.000000000000" height="10.000000000000" xlink:href="#p" />
<use x="100.000000000000" y="100.000000000000" width="10.000000000000" height="10.000000000000" xlink:href="#p" />
<use x="110.000000000000" y="100.000000000000" width="10.000000000000" height="10.000000000000" xlink:href="#p" />
<use x="120.000000000000" y="100.000000000000" width="10.000000000000" height="10.000000000000" xlink:href="#p" />
<use x="150.000000000000" y="100.000000000000" width="10.000000000000" height="10.000000000000" xlink:href="#p" />
<use x="170.000000000000" y="100.000000000000" width="10.000000000000" height="10.000000000000" xlink:href="#p" />
<use x="180.000000000000" y="100.000000000000" width="10.000000000000" height="10.000000000000" xlink:href="#p" />
<use x="190.000000000000" y="100.000000000000" width="10.000000000000" height="10.000000000000" xlink:href="#p" />
<use x="240.000000000000" y="100.000000000000" width="10.000000000000" height="10.000000000000" xlink:href="#p" />
<use x="250.000000000000" y="100.000000000000" width="10.000000000000" height="10.000000000000" xlink:href="#p" />
<use x="280.000000000000" y="100.000000000000" width="10.000000000000" height="10.000000000000" xlink:href="#p" />
<use x="330.000000000000" y="100.000000000000" width="10.000000000000" height="10.000000000000" xlink:href="#p" />
<use x="350.000000000000" y="100.000000000000" width="10.000000000000" height="10.000000000000" xlink:href="#p" />
<use x="360.000000000000" y="100.000000000000" width="10.000000000000" height="10.000000000000" xlink:href="#p" />
<use x="380.000000000000" y="100.000000000000" width="10.000000000000" height="10.000000000000" xlink:href="#p" />
<use x="390.000000000000" y="100.000000000000" width="10.000000000000" height="10.000000000000" xlink:href="#p" />
<use x="400.000000000000" y="100.000000000000" width="10.000000000000" height="10.000000000000" xlink:href="#p" />
<use x="10.000000000000" y="110.000000000000" width="10.000000000000" height="10.000000000000" xlink:href="#p" />
<use x="30.000000000000" y="110.000000000000" width="10.000000000000" height="10.000000000000" xlink:href="#p" />
<use x="70.000000000000" y="110.000000000000" width="10.000000000000" height="10.000000000000" xlink:href="#p" />
<use x="90.000000000000" y="110.000000000000" width="10.000000000000" height="10.000000000000" xlink:href="#p" />
<use x="120.000000000000" y="110.000000000000" width="10.000000000000" height="10.000000000000" xlink:href="#p" />
<use x="130.000000000000" y="110.000000000000" width="10.000000000000" height="10.000000000000" xlink:href="#p" />
<use x="150.000000000000" y="110.000000000000" width="10.000000000000" height="10.000000000000" xlink:href="#p" />
<use x="180.000000000000" y="110.000000000000" width="10.000000000000" height="10.000000000000" xlink:href="#p" />
<use x="190.000000000000" y="110.000000000000" width="10.000000000000" height="10.000000000000" xlink:href="#p" />
<use x="210.000000000000" y="110.000000000000" width="10.000000000000" height="10.000000000000" xlink:href="#p" />
<use x="240.000000000000" y="110.000000000000" width="10.000000000000" height="10.000000000000" xlink:href="#p" />
<use x="250.000000000000" y="110.000000000000" width="10.000000000000" height="10.000000000000" xlink:href="#p" />
<use x="260.000000000000" y="110.000000000000" width="10.000000000000" height="10.000000000000" xlink:href="#p" />
<use x="280.000000000000" y="110.000000000000" width="10.000000000000" height="10.000000000000" xlink:href="#p" />
<use x="290.000000000000" y="110.000000000000" width="10.000000000000" height="10.000000000000" xlink:href="#p" />
<use x="300.000000000000" y="110.000000000000" width="10.000000000000" height="10.000000000000" xlink:href="#p" />
<use x="320.000000000000" y="110.000000000000" width="10.000000000000" height="10.000000000000" xlink:href="#p" />
<use x="330.000000000000" y="110.000000000000" width="10.000000000000" height="10.000000000000" xlink:href="#p" />
<use x="340.000000000000" y="110.000000000000" width="10.000000000000" height="10.000000000000" xlink:href="#p" />
<use x="360.000000000000" y="110.000000000000" width="10.000000000000" height="10.000000000000" xlink:href="#p" />
<use x="10.000000000000" y="120.000000000000" width="10.000000000000" height="10.000000000000" xlink:href="#p" />
<use x="20.000000000000" y="120.000000000000" width="10.000000000000" height="10.000000000000" xlink:href="#p" />
<use x="30.000000000000" y="120.000000000000" width="10.000000000000" height="10.000000000000" xlink:href="#p" />
<use x="40.000000000000" y="120.000000000000" width="10.000000000000" height="10.000000000000" xlink:href="#p" />
<use x="60.000000000000" y="120.000000000000" width="10.000000000000" height="10.000000000000" xlink:href="#p" />
<use x="80.000000000000" y="120.000000000000" width="10.000000000000" height="10.000000000000" xlink:href="#p" />
<use x="90.000000000000" y="120.000000000000" width="10.000000000000" height="10.000000000000" xlink:href="#p" />
<use x="160.000000000000" y="120.000000000000" width="10.000000000000" height="10.000000000000" xlink:href="#p" />
<use x="210.000000000000" y="120.000000000000" width="10.000000000000" height="10.000000000000" xlink:href="#p" />
<use x="230.000000000000" y="120.000000000000" width="10.000000000000" height="10.000000000000" xlink:href="#p" />
<use x="240.000000000000" y="120.000000000000" width="10.000000000000" height="10.000000000000" xlink:href="#p" />
<use x="250.000000000000" y="120.000000000000" width="10.000000000000" height="10.000000000000" xlink:href="#p" />
<use x="270.000000000000" y="120.000000000000" width="10.000000000000" height="10.000000000000" xlink:href="#p" />
<use x="280.000000000000" y="120.000000000000" width="10.000000000000" height="10.000000000000" xlink:href="#p" />
<use x="290.000000000000" y="120.000000000000" width="10.000000000000" height="10.000000000000" xlink:href="#p" />
<use x="330.000000000000" y="120.000000000000" width="10.000000000000" height="10.000000000000" xlink:href="#p" />
<use x="370.000000000000" y="120.000000000000" width="10.000000000000" height="10.000000000000" xlink:href="#p" />
<use x="400.000000000000" y="120.000000000000" width="10.000000000000" height="10.000000000000" xlink:href="#p" />
<use x="0.000000000000" y="130.000000000000" width="10.000000000000" height="10.000000000000" xlink:href="#p" />
<use x="20.000000000000" y="130.000000000000" width="10.000000000000" height="10.000000000000" xlink:href="#p" />
<use x="30.000000000000" y="130.000000000000" width="10.000000000000" height="10.000000000000" xlink:href="#p" />
<use x="50.000000000000" y="130.000000000000" width="10.000000000000" height="10.000000000000" xlink:href="#p" />
<use x="90.000000000000" y="130.000000000000" width="10.000000000000" height="10.000000000000" xlink:href="#p" />
<use x="100.000000000000" y="130.000000000000" width="10.000000000000" height="10.000000000000" xlink:href="#p" />
<use x="110.000000000000" y="130.000000000000" width="10.000000000000" height="10.000000000000" xlink:href="#p" />
<use x="200.000000000000" y="130.000000000000" width="10.000000000000" height="10.000000000000" xlink:href="#p" />
<use x="220.000000000000" y="130.000000000000" width="10.000000000000" height="10.000000000000" xlink:href="#p" />
<use x="230.000000000000" y="130.000000000000" width="10.000000000000" height="10.000000000000" xlink:href="#p" />
<use x="240.000000000000" y="130.000000000000" width="10.000000000000" height="10.000000000000" xlink:href="#p" />
<use x="270.000000000000" y="130.000000000000" width="10.000000000000" height="10.000000000000" xlink:href="#p" />
<use x="280.000000000000" y="130.000000000000" width="10.000000000000" height="10.000000000000" xlink:href="#p" />
<use x="290.000000000000" y="130.000000000000" width="10.000000000000" height="10.000000000000" xlink:href="#p" />
<use x="300.000000000000" y="130.000000000000" width="10.000000000000" height="10.000000000000" xlink:href="#p" />
<use x="310.000000000000" y="130.000000000000" width="10.000000000000" height="10.000000000000" xlink:href="#p" />
<use x="330.000000000000" y="130.000000000000" width="10.000000000000" height="10.000000000000" xlink:href="#p" />
<use x="370.000000000000" y="130.000000000000" width="10.000000000000" height="10.000000000000" xlink:href="#p" />
<use x="390.000000000000" y="130.000000000000" width="10.000000000000" height="10.000000000000" xlink:href="#p" />
<use x="0.000000000000" y="140.000000000000" width="10.000000000000" height="10.000000000000" xlink:href="#p" />
<use x="10.000000000000" y="140.000000000000" width="10.000000000000" height="10.000000000000" xlink:href="#p" />
<use x="20.000000000000" y="140.000000000000" width="10.000000000000" height="10.000000000000" xlink:href="#p" />
<use x="50.000000000000" y="140.000000000000" width="10.000000000000" height="10.000000000000" xlink:href="#p" />
<use x="60.000000000000" y="140.000000000000" width="10.000000000000" height="10.000000000000" xlink:href="#p" />
<use x="80.000000000000" y="140.000000000000" width="10.000000000000" height="10.000000000000" xlink:href="#p" />
<use x="100.000000000000" y="140.000000000000" width="10.000000000000" height="10.000000000000" xlink:href="#p" />
<use x="120.000000000000" y="140.000000000000" width="10.000000000000" height="10.000000000000" xlink:href="#p" />
<use x="140.000000000000" y="140.000000000000" width="10.000000000000" height="10.000000000000" xlink:href="#p" />
<use x="150.000000000000" y="140.000000000000" width="10.000000000000" height="10.000000000000" xlink:href="#p" />
<use x="160.000000000000" y="140.000000000000" width="10.000000000000" height="10.000000000000" xlink:href="#p" />
<use x="190.000000000000" y="140.000000000000" width="10.000000000000" height="10.000000000000" xlink:href="#p" />
<use x="200.000000000000" y="140.000000000000" width="10.000000000000" height="10.000000000000" xlink:href="#p" />
<use x="230.000000000000" y="140.000000000000" width="10.000000000000" height="10.000000000000" xlink:href="#p" />
<use x="260.000000000000" y="140.000000000000" width="10.000000000000" height="10.000000000000" xlink:href="#p" />
<use x="270.000000000000" y="140.000000000000" width="10.000000000000" height="10.000000000000" xlink:href="#p" />
<use x="280.000000000000" y="140.000000000000" width="10.000000000000" height="10.000000000000" xlink:href="#p" />
<use x="290.000000000000" y="140.000000000000" width="10.000000000000" height="10.000000000000" xlink:href="#p" />
<use x="300.000000000000" y="140.000000000000" width="10.000000000000" height="10.000000000000" xlink:href="#p" />
<use x="350.000000000000" y="140.000000000000" width="10.000000000000" height="10.000000000000" xlink:href="#p" />
<use x="370.000000000000" y="140.000000000000" width="10.000000000000" height="10.000000000000" xlink:href="#p" />
<use x="380.000000000000" y="140.000000000000" width="10.000000000000" height="10.000000000000" xlink:href="#p" />
<use x="390.000000000000" y="140.000000000000" width="10.000000000000" height="10.000000000000" xlink:href="#p" />
<use x="400.000000000000" y="140.000000000000" width="10.000000000000" height="10.000000000000" xlink:href="#p" />
<use x="10.000000000000" y="150.000000000000" width="10.000000000000" height="10.000000000000" xlink:href="#p" />
<use x="30.000000000000" y="150.000000000000" width="10.000000000000" height="10.000000000000" xlink:href="#p" />
<use x="40.000000000000" y="150.000000000000" width="10.000000000000" height="10.000000000000" xlink:href="#p" />
<use x="100.000000000000" y="150.000000000000" width="10.000000000000" height="10.000000000000" xlink:href="#p" />
<use x="110.000000000000" y="150.000000000000" width="10.000000000000" height="10.000000000000" xlink:href="#p" />
<use x="140.000000000000" y="150.000000000000" width="10.000000000000" height="10.000000000000" xlink:href="#p" />
<use x="160.000000000000" y="150.000000000000" width="10.000000000000" height="10.000000000000" xlink:href="#p" />
<use x="190.000000000000" y="150.000000000000" width="10.000000000000" height="10.000000000000" xlink:href="#p" />
<use x="200.000000000000" y="150.000000000000" width="10.000000000000" height="10.000000000000" xlink:href="#p" />
<use x="250.000000000000" y="150.000000000000" width="10.000000000000" height="10.000000000000" xlink:href="#p" />
<use x="280.000000000000" y="150.000000000000" width="10.000000000000" height="10.000000000000" xlink:href="#p" />
<use x="290.000000000000" y="150.000000000000" width="10.000000000000" height="10.000000000000" xlink:href="#p" />
<use x="310.000000000000" y="150.000000000000" width="10.000000000000" height="10.000000000000" xlink:href="#p" />
<use x="330.000000000000" y="150.000000000000" width="10.000000000000" height="10.000000000000" xlink:href="#p" />
<use x="340.000000000000" y="150.000000000000" width="10.000000000000" height="10.000000000000" xlink:href="#p" />
<use x="360.000000000000" y="150.000000000000" width="10.000000000000" height="10.000000000000" xlink:href="#p" />
<use x="370.000000000000" y="150.000000000000" width="10.000000000000" height="10.000000000000" xlink:href="#p" />
<use x="400.000000000000" y="150.000000000000" width="10.000000000000" height="10.000000000000" xlink:href="#p" />
<use x="10.000000000000" y="160.000000000000" width="10.000000000000" height="10.000000000000" xlink:href="#p" />
<use x="20.000000000000" y="160.000000000000" width="10.000000000000" height="10.000000000000" xlink:href="#p" />
<use x="30.000000000000" y="160.000000000000" width="10.000000000000" height="10.000000000000" xlink:href="#p" />
<use x="40.000000000000" y="160.000000000000" width="10.000000000000" height="10.000000000000" xlink:href="#p" />
<use x="50.000000000000" y="160.000000000000" width="10.000000000000" height="10.000000000000" xlink:href="#p" />
<use x="60.000000000000" y="160.000000000000" width="10.000000000000" height="10.000000000000" xlink:href="#p" />
<use x="80.000000000000" y="160.000000000000" width="10.000000000000" height="10.000000000000" xlink:href="#p" />
<use x="110.000000000000" y="160.000000000000" width="10.000000000000" height="10.000000000000" xlink:href="#p" />
<use x="140.000000000000" y="160.000000000000" width="10.000000000000" height="10.000000000000" xlink:href="#p" />
<use x="170.000000000000" y="160.000000000000" width="10.000000000000" height="10.000000000000" xlink:href="#p" />
<use x="200.000000000000" y="160.000000000000" width="10.000000000000" height="10.000000000000" xlink:href="#p" />
<use x="220.000000000000" y="160.000000000000" width="10.000000000000" height="10.000000000000" xlink:href="#p" />
<use x="230.000000000000" y="160.000000000000" width="10.000000000000" height="10.000000000000" xlink:href="#p" />
<use x="240.000000000000" y="160.000000000000" width="10.000000000000" height="10.000000000000" xlink:href="#p" />
<use x="260.000000000000" y="160.000000000000" width="10.000000000000" height="10.000000000000" xlink:href="#p" />
<use x="270.000000000000" y="160.000000000000" width="10.000000000000" height="10.000000000000" xlink:href="#p" />
<use x="320.000000000000" y="160.000000000000" width="10.000000000000" height="10.000000000000" xlink:href="#p" />
<use x="340.000000000000" y="160.000000000000" width="10.000000000000" height="10.000000000000" xlink:href="#p" />
<use x="350.000000000000" y="160.000000000000" width="10.000000000000" height="10.000000000000" xlink:href="#p" />
<use x="390.000000000000" y="160.000000000000" width="10.000000000000" height="10.000000000000" xlink:href="#p" />
<use x="400.000000000000" y="160.000000000000" width="10.000000000000" height="10.000000000000" xlink:href="#p" />
<use x="0.000000000000" y="170.000000000000" width="10.000000000000" height="10.000000000000" xlink:href="#p" />
<use x="10.000000000000" y="170.000000000000" width="10.000000000000" height="10.000000000000" xlink:href="#p" />
<use x="20.000000000000" y="170.000000000000" width="10.000000000000" height="10.000000000000" xlink:href="#p" />
<use x="30.000000000000" y="170.000000000000" width="10.000000000000" height="10.000000000000" xlink:href="#p" />
<use x="50.000000000000" y="170.000000000000" width="10.000000000000" height="10.000000000000" xlink:href="#p" />
<use x="80.000000000000" y="170.000000000000" width="10.000000000000" height="10.000000000000" xlink:href="#p" />
<use x="90.000000000000" y="170.000000000000" width="10.000000000000" height="10.000000000000" xlink:href="#p" />
<use x="120.000000000000" y="170.000000000000" width="10.000000000000" height="10.000000000000" xlink:href="#p" />
<use x="140.000000000000" y="170.000000000000" width="10.000000000000" height="10.000000000000" xlink:href="#p" />
<use x="150.000000000000" y="170.000000000000" width="10.000000000000" height="10.000000000000" xlink:href="#p" />
<use x="160.000000000000" y="170.000000000000" width="10.000000000000" height="10.000000000000" xlink:href="#p" />
<use x="170.000000000000" y="170.000000000000" width="10.000000000000" height="10.000000000000" xlink:href="#p" />
<use x="250.000000000000" y="170.000000000000" width="10.000000000000" height="10.000000000000" xlink:href="#p" />
<use x="260.000000000000" y="170.000000000000" width="10.000000000000" height="10.000000000000" xlink:href="#p" />
<use x="290.000000000000" y="170.000000000000" width="10.000000000000" height="10.000000000000" xlink:href="#p" />
<use x="300.000000000000" y="170.000000000000" width="10.000000000000" height="10.000000000000" xlink:href="#p" />
<use x="310.000000000000" y="170.000000000000" width="10.000000000000" height="10.000000000000" xlink:href="#p" />
<use x="330.000000000000" y="170.000000000000" width="10.000000000000" height="10.000000000000" xlink:href="#p" />
<use x="340.000000000000" y="170.000000000000" width="10.000000000000" height="10.000000000000" xlink:href="#p" />
<use x="350.000000000000" y="170.000000000000" width="10.000000000000" height="10.000000000000" xlink:href="#p" />
<use x="400.000000000000" y="170.000000000000" width="10.000000000000" height="10.000000000000" xlink:href="#p" />
<use x="0.000000000000" y="180.000000000000" width="10.000000000000" height="10.000000000000" xlink:href="#p" />
<use x="10.000000000000" y="180.000000000000" width="10.000000000000" height="10.000000000000" xlink:href="#p" />
<use x="20.000000000000" y="180.000000000000" width="10.000000000000" height="10.000000000000" xlink:href="#p" />
<use x="30.000000000000" y="180.000000000000" width="10.000000000000" height="10.000000000000" xlink:href="#p" />
<use x="40.000000000000" y="180.000000000000" width="10.000000000000" height="10.000000000000" xlink:href="#p" />
<use x="50.000000000000" y="180.000000000000" width="10.000000000000" height="10.000000000000" xlink:href="#p" />
<use x="60.000000000000" y="180.000000000000" width="10.000000000000" height="10.000000000000" xlink:href="#p" />
<use x="90.000000000000" y="180.000000000000" width="10.000000000000" height="10.000000000000" xlink:href="#p" />
<use x="100.000000000000" y="180.000000000000" width="10.000000000000" height="10.000000000000" xlink:href="#p" />
<use x="110.000000000000" y="180.000000000000" width="10.000000000000" height="10.000000000000" xlink:href="#p" />
<use x="120.000000000000" y="180.000000000000" width="10.000000000000" height="10.000000000000" xlink:href="#p" />
<use x="150.000000000000" y="180.000000000000" width="10.000000000000" height="10.000000000000" xlink:href="#p" />
<use x="170.000000000000" y="180.000000000000" width="10.000000000000" height="10.000000000000" xlink:href="#p" />
<use x="180.000000000000" y="180.000000000000" width="10.000000000000" height="10.000000000000" xlink:href="#p" />
<use x="190.000000000000" y="180.000000000000" width="10.000000000000" height="10.000000000000" xlink:href="#p" />
<use x="200.000000000000" y="180.000000000000" width="10.000000000000" height="10.000000000000" xlink:href="#p" />
<use x="230.000000000000" y="180.000000000000" width="10.000000000000" height="10.000000000000" xlink:href="#p" />
<use x="240.000000000000" y="180.000000000000" width="10.000000000000" height="10.000000000000" xlink:href="#p" />
<use x="260.000000000000" y="180.000000000000" width="10.000000000000" height="10.000000000000" xlink:href="#p" />
<use x="300.000000000000" y="180.000000000000" width="10.000000000000" height="10.000000000000" xlink:href="#p" />
<use x="320.000000000000" y="180.000000000000" width="10.000000000000" height="10.000000000000" xlink:href="#p" />
<use x="330.000000000000" y="180.000000000000" width="10.000000000000" height="10.000000000000" xlink:href="#p" />
<use x="360.000000000000" y="180.000000000000" width="10.000000000000" height="10.000000000000" xlink:href="#p" />
<use x="380.000000000000" y="180.000000000000" width="10.000000000000" height="10.000000000000" xlink:href="#p" />
<use x="390.000000000000" y="180.000000000000" width="10.000000000000" height="10.000000000000" xlink:href="#p" />
<use x="400.000000000000" y="180.000000000000" width="10.000000000000" height="10.000000000000" xlink:href="#p" />
<use x="20.000000000000" y="190.000000000000" width="10.000000000000" height="10.000000000000" xlink:href="#p" />
<use x="40.000000000000" y="190.000000000000" width="10.000000000000" height="10.000000000000" xlink:href="#p" />
<use x="50.000000000000" y="190.000000000000" width="10.000000000000" height="10.000000000000" xlink:href="#p" />
<use x="70.000000000000" y="190.000000000000" width="10.000000000000" height="10.000000000000" xlink:href="#p" />
<use x="90.000000000000" y="190.000000000000" width="10.000000000000" height="10.000000000000" xlink:href="#p" />
<use x="110.000000000000" y="190.000000000000" width="10.000000000000" height="10.000000000000" xlink:href="#p" />
<use x="140.000000000000" y="190.000000000000" width="10.000000000000" height="10.000000000000" xlink:href="#p" />
<use x="180.000000000000" y="190.000000000000" width="10.000000000000" height="10.000000000000" xlink:href="#p" />
<use x="200.000000000000" y="190.000000000000" width="10.000000000000" height="10.000000000000" xlink:href="#p" />
<use x="210.000000000000" y="190.000000000000" width="10.000000000000" height="10.000000000000" xlink:href="#p" />
<use x="230.000000000000" y="190.000000000000" width="10.000000000000" height="10.000000000000" xlink:href="#p" />
<use x="280.000000000000" y="190.000000000000" width="10.000000000000" height="10.000000000000" xlink:href="#p" />
<use x="290.000000000000" y="190.000000000000" width="10.000000000000" height="10.000000000000" xlink:href="#p" />
<use x="300.000000000000" y="190.000000000000" width="10.000000000000" height="10.000000000000" xlink:href="#p" />
<use x="310.000000000000" y="190.000000000000" width="10.000000000000" height="10.000000000000" xlink:href="#p" />
<use x="320.000000000000" y="190.000000000000" width="10.000000000000" height="10.000000000000" xlink:href="#p" />
<use x="350.000000000000" y="190.000000000000" width="10.000000000000" height="10.000000000000" xlink:href="#p" />
<use x="370.000000000000" y="190.000000000000" width="10.000000000000" height="10.000000000000" xlink:href="#p" />
<use x="20.000000000000" y="200.000000000000" width="10.000000000000" height="10.000000000000" xlink:href="#p" />
<use x="30.000000000000" y="200.000000000000" width="10.000000000000" height="10.000000000000" xlink:href="#p" />
<use x="50.000000000000" y="200.000000000000" width="10.000000000000" height="10.000000000000" xlink:href="#p" />
<use x="60.000000000000" y="200.000000000000" width="10.000000000000" height="10.000000000000" xlink:href="#p" />
<use x="70.000000000000" y="200.000000000000" width="10.000000000000" height="10.000000000000" xlink:href="#p" />
<use x="90.000000000000" y="200.000000000000" width="10.000000000000" height="10.000000000000" xlink:href="#p" />
<use x="100.000000000000" y="200.000000000000" width="10.000000000000" height="10.000000000000" xlink:href="#p" />
<use x="120.000000000000" y="200.000000000000" width="10.000000000000" height="10.000000000000" xlink:href="#p" />
<use x="140.000000000000" y="200.000000000000" width="10.000000000000" height="10.000000000000" xlink:href="#p" />
<use x="160.000000000000" y="200.000000000000" width="10.000000000000" height="10.000000000000" xlink:href="#p" />
<use x="170.000000000000" y="200.000000000000" width="10.000000000000" height="10.000000000000" xlink:href="#p" />
<use x="200.000000000000" y="200.000000000000" width="10.000000000000" height="10.000000000000" xlink:href="#p" />
<use x="210.000000000000" y="200.000000000000" width="10.000000000000" height="10.000000000000" xlink:href="#p" />
<use x="220.000000000000" y="200.000000000000" width="10.000000000000" height="10.000000000000" xlink:href="#p" />
<use x="250.000000000000" y="200.000000000000" width="10.000000000000" height="10.000000000000" xlink:href="#p" />
<use x="270.000000000000" y="200.000000000000" width="10.000000000000" height="10.000000000000" xlink:href="#p" />
<use x="300.000000000000" y="200.000000000000" width="10.000000000000" height="10.000000000000" xlink:href="#p" />
<use x="320.000000000000" y="200.000000000000" width="10.000000000000" height="10.000000000000" xlink:href="#p" />
<use x="340.000000000000" y="200.000000000000" width="10.000000000000" height="10.000000000000" xlink:href="#p" />
<use x="350.000000000000" y="200.000000000000" width="10.000000000000" height="10.000000000000" xlink:href="#p" />
<use x="360.000000000000" y="200.000000000000" width="10.000000000000" height="10.000000000000" xlink:href="#p" />
<use x="370.000000000000" y="200.000000000000" width="10.000000000000" height="10.000000000000" xlink:href="#p" />
<use x="380.000000000000" y="200.000000000000" width="10.000000000000" height="10.000000000000" xlink:href="#p" />
<use x="400.000000000000" y="200.000000000000" width="10.000000000000" height="10.000000000000" xlink:href="#p" />
<use x="90.000000000000" y="210.000000000000" width="10.000000000000" height="10.000000000000" xlink:href="#p" />
<use x="100.000000000000" y="210.000000000000" width="10.000000000000" height="10.000000000000" xlink:href="#p" />
<use x="110.000000000000" y="210.000000000000" width="10.000000000000" height="10.000000000000" xlink:href="#p" />
<use x="120.000000000000" y="210.000000000000" width="10.000000000000" height="10.000000000000" xlink:href="#p" />
<use x="130.000000000000" y="210.000000000000" width="10.000000000000" height="10.000000000000" xlink:href="#p" />
<use x="140.000000000000" y="210.000000000000" width="10.000000000000" height="10.000000000000" xlink:href="#p" />
<use x="150.000000000000" y="210.000000000000" width="10.000000000000" height="10.000000000000" xlink:href="#p" />
<use x="160.000000000000" y="210.000000000000" width="10.000000000000" height="10.000000000000" xlink:href="#p" />
<use x="170.000000000000" y="210.000000000000" width="10.000000000000" height="10.000000000000" xlink:href="#p" />
<use x="210.000000000000" y="210.000000000000" width="10.000000000000" height="10.000000000000" xlink:href="#p" />
<use x="280.000000000000" y="210.000000000000" width="10.000000000000" height="10.000000000000" xlink:href="#p" />
<use x="300.000000000000" y="210.000000000000" width="10.000000000000" height="10.000000000000" xlink:href="#p" />
<use x="330.000000000000" y="210.000000000000" width="10.000000000000" height="10.000000000000" xlink:href="#p" />
<use x="340.000000000000" y="210.000000000000" width="10.000000000000" height="10.000000000000" xlink:href="#p" />
<use x="350.000000000000" y="210.000000000000" width="10.000000000000" height="10.000000000000" xlink:href="#p" />
<use x="390.000000000000" y="210.000000000000" width="10.000000000000" height="10.000000000000" xlink:href="#p" />
<use x="400.000000000000" y="210.000000000000" width="10.000000000000" height="10.000000000000" xlink:href="#p" />
<use x="0.000000000000" y="220.000000000000" width="10.000000000000" height="10.000000000000" xlink:href="#p" />
<use x="10.000000000000" y="220.000000000000" width="10.000000000000" height="10.000000000000" xlink:href="#p" />
<use x="20.000000000000" y="220.000000000000" width="10.000000000000" height="10.000000000000" xlink:href="#p" />
<use x="60.000000000000" y="220.000000000000" width="10.000000000000" height="10.000000000000" xlink:href="#p" />
<use x="70.000000000000" y="220.000000000000" width="10.000000000000" height="10.000000000000" xlink:href="#p" />
<use x="80.000000000000" y="220.000000000000" width="10.000000000000" height="10.000000000000" xlink:href="#p" />
<use x="100.000000000000" y="220.000000000000" width="10.000000000000" height="10.000000000000" xlink:href="#p" />
<use x="110.000000000000" y="220.000000000000" width="10.000000000000" height="10.000000000000" xlink:href="#p" />
<use x="140.000000000000" y="220.000000000000" width="10.000000000000" height="10.000000000000" xlink:href="#p" />
<use x="180.000000000000" y="220.000000000000" width="10.000000000000" height="10.000000000000" xlink:href="#p" />
<use x="190.000000000000" y="220.000000000000" width="10.000000000000" height="10.000000000000" xlink:href="#p" />
<use x="200.000000000000" y="220.000000000000" width="10.000000000000" height="10.000000000000" xlink:href="#p" />
<use x="210.000000000000" y="220.000000000000" width="10.000000000000" height="10.000000000000" xlink:href="#p" />
<use x="250.000000000000" y="220.000000000000" width="10.000000000000" height="10.000000000000" xlink:href="#p" />
<use x="280.000000000000" y="220.000000000000" width="10.000000000000" height="10.000000000000" xlink:href="#p" />
<use x="300.000000000000" y="220.000000000000" width="10.000000000000" height="10.000000000000" xlink:href="#p" />
<use x="320.000000000000" y="220.000000000000" width="10.000000000000" height="10.000000000000" xlink:href="#p" />
<use x="340.000000000000" y="220.000000000000" width="10.000000000000" height="10.000000000000" xlink:href="#p" />
<use x="350.000000000000" y="220.000000000000" width="10.000000000000" height="10.000000000000" xlink:href="#p" />
<use x="360.000000000000" y="220.000000000000" width="10.000000000000" height="10.000000000000" xlink:href="#p" />
<use x="380.000000000000" y="220.000000000000" width="10.000000000000" height="10.000000000000" xlink:href="#p" />
<use x="390.000000000000" y="220.000000000000" width="10.000000000000" height="10.000000000000" xlink:href="#p" />
<use x="400.000000000000" y="220.000000000000" width="10.000000000000" height="10.000000000000" xlink:href="#p" />
<use x="10.000000000000" y="230.000000000000" width="10.000000000000" height="10.000000000000" xlink:href="#p" />
<use x="40.000000000000" y="230.000000000000" width="10.000000000000" height="10.000000000000" xlink:href="#p" />
<use x="50.000000000000" y="230.000000000000" width="10.000000000000" height="10.000000000000" xlink:href="#p" />
<use x="110.000000000000" y="230.000000000000" width="10.000000000000" height="10.000000000000" xlink:href="#p" />
<use x="150.000000000000" y="230.000000000000" width="10.000000000000" height="10.000000000000" xlink:href="#p" />
<use x="170.000000000000" y="230.000000000000" width="10.000000000000" height="10.000000000000" xlink:href="#p" />
<use x="180.000000000000" y="230.000000000000" width="10.000000000000" height="10.000000000000" xlink:href="#p" />
<use x="190.000000000000" y="230.000000000000" width="10.000000000000" height="10.000000000000" xlink:href="#p" />
<use x="200.000000000000" y="230.000000000000" width="10.000000000000" height="10.000000000000" xlink:href="#p" />
<use x="210.000000000000" y="230.000000000000" width="10.000000000000" height="10.000000000000" xlink:href="#p" />
<use x="240.000000000000" y="230.000000000000" width="10.000000000000" height="10.000000000000" xlink:href="#p" />
<use x="250.000000000000" y="230.000000000000" width="10.000000000000" height="10.000000000000" xlink:href="#p" />
<use x="280.000000000000" y="230.000000000000" width="10.000000000000" height="10.000000000000" xlink:href="#p" />
<use x="290.000000000000" y="230.000000000000" width="10.000000000000" height="10.000000000000" xlink:href="#p" />
<use x="300.000000000000" y="230.000000000000" width="10.000000000000" height="10.000000000000" xlink:href="#p" />
<use x="330.000000000000" y="230.000000000000" width="10.000000000000" height="10.000000000000" xlink:href="#p" />
<use x="340.000000000000" y="230.000000000000" width="10.000000000000" height="10.000000000000" xlink:href="#p" />
<use x="350.000000000000" y="230.000000000000" width="10.000000000000" height="10.000000000000" xlink:href="#p" />
<use x="370.000000000000" y="230.000000000000" width="10.000000000000" height="10.000000000000" xlink:href="#p" />
<use x="390.000000000000" y="230.000000000000" width="10.000000000000" height="10.000000000000" xlink:href="#p" />
<use x="0.000000000000" y="240.000000000000" width="10.000000000000" height="10.000000000000" xlink:href="#p" />
<use x="10.000000000000" y="240.000000000000" width="10.000000000000" height="10.000000000000" xlink:href="#p" />
<use x="20.000000000000" y="240.000000000000" width="10.000000000000" height="10.000000000000" xlink:href="#p" />
<use x="30.000000000000" y="240.000000000000" width="10.000000000000" height="10.000000000000" xlink:href="#p" />
<use x="50.000000000000" y="240.000000000000" width="10.000000000000" height="10.000000000000" xlink:href="#p" />
<use x="60.000000000000" y="240.000000000000" width="10.000000000000" height="10.000000000000" xlink:href="#p" />
<use x="100.000000000000" y="240.000000000000" width="10.000000000000" height="10.000000000000" xlink:href="#p" />
<use x="140.000000000000" y="240.000000000000" width="10.000000000000" height="10.000000000000" xlink:href="#p" />
<use x="150.000000000000" y="240.000000000000" width="10.000000000000" height="10.000000000000" xlink:href="#p" />
<use x="190.000000000000" y="240.000000000000" width="10.000000000000" height="10.000000000000" xlink:href="#p" />
<use x="200.000000000000" y="240.000000000000" width="10.000000000000" height="10.000000000000" xlink:href="#p" />
<use x="220.000000000000" y="240.000000000000" width="10.000000000000" height="10.000000000000" xlink:href="#p" />
<use x="260.000000000000" y="240.000000000000" width="10.000000000000" height="10.000000000000" xlink:href="#p" />
<use x="280.000000000000" y="240.000000000000" width="10.000000000000" height="10.000000000000" xlink:href="#p" />
<use x="290.000000000000" y="240.000000000000" width="10.000000000000" height="10.000000000000" xlink:href="#p" />
<use x="360.000000000000" y="240.000000000000" width="10.000000000000" height="10.000000000000" xlink:href="#p" />
<use x="380.000000000000" y="240.000000000000" width="10.000000000000" height="10.000000000000" xlink:href="#p" />
<use x="390.000000000000" y="240.000000000000" width="10.000000000000" height="10.000000000000" xlink:href="#p" />
<use x="20.000000000000" y="250.000000000000" width="10.000000000000" height="10.000000000000" xlink:href="#p" />
<use x="30.000000000000" y="250.000000000000" width="10.000000000000" height="10.000000000000" xlink:href="#p" />
<use x="40.000000000000" y="250.000000000000" width="10.000000000000" height="10.000000000000" xlink:href="#p" />
<use x="50.000000000000" y="250.000000000000" width="10.000000000000" height="10.000000000000" xlink:href="#p" />
<use x="70.000000000000" y="250.000000000000" width="10.000000000000" height="10.000000000000" xlink:href="#p" />
<use x="80.000000000000" y="250.000000000000" width="10.000000000000" height="10.000000000000" xlink:href="#p" />
<use x="130.000000000000" y="250.000000000000" width="10.000000000000" height="10.000000000000" xlink:href="#p" />
<use x="160.000000000000" y="250.000000000000" width="10.000000000000" height="10.000000000000" xlink:href="#p" />
<use x="170.000000000000" y="250.000000000000" width="10.000000000000" height="10.000000000000" xlink:href="#p" />
<use x="180.000000000000" y="250.000000000000" width="10.000000000000" height="10.000000000000" xlink:href="#p" />
<use x="220.000000000000" y="250.000000000000" width="10.000000000000" height="10.000000000000" xlink:href="#p" />
<use x="240.000000000000" y="250.000000000000" width="10.000000000000" height="10.000000000000" xlink:href="#p" />
<use x="280.000000000000" y="250.000000000000" width="10.000000000000" height="10.000000000000" xlink:href="#p" />
<use x="290.000000000000" y="250.000000000000" width="10.000000000000" height="10.000000000000" xlink:href="#p" />
<use x="300.000000000000" y="250.000000000000" width="10.000000000000" height="10.000000000000" xlink:href="#p" />
<use x="320.000000000000" y="250.000000000000" width="10.000000000000" height="10.000000000000" xlink:href="#p" />
<use x="360.000000000000" y="250.000000000000" width="10.000000000000" height="10.000000000000" xlink:href="#p" />
<use x="400.000000000000" y="250.000000000000" width="10.000000000000" height="10.000000000000" xlink:href="#p" />
<use x="0.000000000000" y="260.000000000000" width="10.000000000000" height="10.000000000000" xlink:href="#p" />
<use x="10.000000000000" y="260.000000000000" width="10.000000000000" height="10.000000000000" xlink:href="#p" />
<use x="40.000000000000" y="260.000000000000" width="10.000000000000" height="10.000000000000" xlink:href="#p" />
<use x="60.000000000000" y="260.000000000000" width="10.000000000000" height="10.000000000000" xlink:href="#p" />
<use x="70.000000000000" y="260.000000000000" width="10.000000000000" height="10.000000000000" xlink:href="#p" />
<use x="100.000000000000" y="260.000000000000" width="10.000000000000" height="10.000000000000" xlink:href="#p" />
<use x="110.000000000000" y="260.000000000000" width="10.000000000000" height="10.000000000000" xlink:href="#p" />
<use x="120.000000000000" y="260.000000000000" width="10.000000000000" height="10.000000000000" xlink:href="#p" />
<use x="130.000000000000" y="260.000000000000" width="10.000000000000" height="10.000000000000" xlink:href="#p" />
<use x="150.000000000000" y="260.000000000000" width="10.000000000000" height="10.000000000000" xlink:href="#p" />
<use x="170.000000000000" y="260.000000000000" width="10.000000000000" height="10.000000000000" xlink:href="#p" />
<use x="240.000000000000" y="260.000000000000" width="10.000000000000" height="10.000000000000" xlink:href="#p" />
<use x="300.000000000000" y="260.000000000000" width="10.000000000000" height="10.000000000000" xlink:href="#p" />
<use x="340.000000000000" y="260.000000000000" width="10.000000000000" height="10.000000000000" xlink:href="#p" />
<use x="350.000000000000" y="260.000000000000" width="10.000000000000" height="10.000000000000" xlink:href="#p" />
<use x="360.000000000000" y="260.000000000000" width="10.000000000000" height="10.000000000000" xlink:href="#p" />
<use x="380.000000000000" y="260.000000000000" width="10.000000000000" height="10.000000000000" xlink:href="#p" />
<use x="390.000000000000" y="260.000000000000" width="10.000000000000" height="10.000000000000" xlink:href="#p" />
<use x="400.000000000000" y="260.000000000000" width="10.000000000000" height="10.000000000000" xlink:href="#p" />
<use x="0.000000000000" y="270.000000000000" width="10.000000000000" height="10.000000000000" xlink:href="#p" />
<use x="50.000000000000" y="270.000000000000" width="10.000000000000" height="10.000000000000" xlink:href="#p" />
<use x="80.000000000000" y="270.000000000000" width="10.000000000000" height="10.000000000000" xlink:href="#p" />
<use x="120.000000000000" y="270.000000000000" width="10.000000000000" height="10.000000000000" xlink:href="#p" />
<use x="150.000000000000" y="270.000000000000" width="10.000000000000" height="10.000000000000" xlink:href="#p" />
<use x="180.000000000000" y="270.000000000000" width="10.000000000000" height="10.000000000000" xlink:href="#p" />
<use x="200.000000000000" y="270.000000000000" width="10.000000000000" height="10.000000000000" xlink:href="#p" />
<use x="210.000000000000" y="270.000000000000" width="10.000000000000" height="10.000000000000" xlink:href="#p" />
<use x="220.000000000000" y="270.000000000000" width="10.000000000000" height="10.000000000000" xlink:href="#p" />
<use x="230.000000000000" y="270.000000000000" width="10.000000000000" height="10.000000000000" xlink:href="#p" />
<use x="250.000000000000" y="270.000000000000" width="10.000000000000" height="10.000000000000" xlink:href="#p" />
<use x="270.000000000000" y="270.000000000000" width="10.000000000000" height="10.000000000000" xlink:href="#p" />
<use x="290.000000000000" y="270.000000000000" width="10.000000000000" height="10.000000000000" xlink:href="#p" />
<use x="320.000000000000" y="270.000000000000" width="10.000000000000" height="10.000000000000" xlink:href="#p" />
<use x="350.000000000000" y="270.000000000000" width="10.000000000000" height="10.000000000000" xlink:href="#p" />
<use x="400.000000000000" y="270.000000000000" width="10.000000000000" height="10.000000000000" xlink:href="#p" />
<use x="20.000000000000" y="280.000000000000" width="10.000000000000" height="10.000000000000" xlink:href="#p" />
<use x="60.000000000000" y="280.000000000000" width="10.000000000000" height="10.000000000000" xlink:href="#p" />
<use x="120.000000000000" y="280.000000000000" width="10.000000000000" height="10.000000000000" xlink:href="#p" />
<use x="140.000000000000" y="280.000000000000" width="10.000000000000" height="10.000000000000" xlink:href="#p" />
<use x="190.000000000000" y="280.000000000000" width="10.000000000000" height="10.000000000000" xlink:href="#p" />
<use x="200.000000000000" y="280.000000000000" width="10.000000000000" height="10.000000000000" xlink:href="#p" />
<use x="240.000000000000" y="280.000000000000" width="10.000000000000" height="10.000000000000" xlink:href="#p" />
<use x="250.000000000000" y="280.000000000000" width="10.000000000000" height="10.000000000000" xlink:href="#p" />
<use x="270.000000000000" y="280.000000000000" width="10.000000000000" height="10.000000000000" xlink:href="#p" />
<use x="290.000000000000" y="280.000000000000" width="10.000000000000" height="10.000000000000" xlink:href="#p" />
<use x="300.000000000000" y="280.000000000000" width="10.000000000000" height="10.000000000000" xlink:href="#p" />
<use x="310.000000000000" y="280.000000000000" width="10.000000000000" height="10.000000000000" xlink:href="#p" />
<use x="320.000000000000" y="280.000000000000" width="10.000000000000" height="10.000000000000" xlink:href="#p" />
<use x="340.000000000000" y="280.000000000000" width="10.000000000000" height="10.000000000000" xlink:href="#p" />
<use x="370.000000000000" y="280.000000000000" width="10.000000000000" height="10.000000000000" xlink:href="#p" />
<use x="400.000000000000" y="280.000000000000" width="10.000000000000" height="10.000000000000" xlink:href="#p" />
<use x="10.000000000000" y="290.000000000000" width="10.000000000000" height="10.000000000000" xlink:href="#p" />
<use x="40.000000000000" y="290.000000000000" width="10.000000000000" height="10.000000000000" xlink:href="#p" />
<use x="50.000000000000" y="290.000000000000" width="10.000000000000" height="10.000000000000" xlink:href="#p" />
<use x="70.000000000000" y="290.000000000000" width="10.000000000000" height="10.000000000000" xlink:href="#p" />
<use x="90.000000000000" y="290.000000000000" width="10.000000000000" height="10.000000000000" xlink:href="#p" />
<use x="110.000000000000" y="290.000000000000" width="10.000000000000" height="10.000000000000" xlink:href="#p" />
<use x="160.000000000000" y="290.000000000000" width="10.000000000000" height="10.000000000000" xlink:href="#p" />
<use x="180.000000000000" y="290.000000000000" width="10.000000000000" height="10.000000000000" xlink:href="#p" />
<use x="200.000000000000" y="290.000000000000" width="10.000000000000" height="10.000000000000" xlink:href="#p" />
<use x="210.000000000000" y="290.000000000000" width="10.000000000000" height="10.000000000000" xlink:href="#p" />
<use x="270.000000000000" y="290.000000000000" width="10.000000000000" height="10.000000000000" xlink:href="#p" />
<use x="290.000000000000" y="290.000000000000" width="10.000000000000" height="10.000000000000" xlink:href="#p" />
<use x="310.000000000000" y="290.000000000000" width="10.000000000000" height="10.000000000000" xlink:href="#p" />
<use x="320.000000000000" y="290.000000000000" width="10.000000000000" height="10.000000000000" xlink:href="#p" />
<use x="380.000000000000" y="290.000000000000" width="10.000000000000" height="10.000000000000" xlink:href="#p" />
<use x="0.000000000000" y="300.000000000000" width="10.000000000000" height="10.000000000000" xlink:href="#p" />
<use x="50.000000000000" y="300.000000000000" width="10.000000000000" height="10.000000000000" xlink:href="#p" />
<use x="60.000000000000" y="300.000000000000" width="10.000000000000" height="10.000000000000" xlink:href="#p" />
<use x="70.000000000000" y="300.000000000000" width="10.000000000000" height="10.000000000000" xlink:href="#p" />
<use x="100.000000000000" y="300.000000000000" width="10.000000000000" height="10.000000000000" xlink:href="#p" />
<use x="110.000000000000" y="300.000000000000" width="10.000000000000" height="10.000000000000" xlink:href="#p" />
<use x="120.000000000000" y="300.000000000000" width="10.000000000000" height="10.000000000000" xlink:href="#p" />
<use x="130.000000000000" y="300.000000000000" width="10.000000000000" height="10.000000000000" xlink:href="#p" />
<use x="150.000000000000" y="300.000000000000" width="10.000000000000" height="10.000000000000" xlink:href="#p" />
<use x="170.000000000000" y="300.000000000000" width="10.000000000000" height="10.000000000000" xlink:href="#p" />
<use x="190.000000000000" y="300.000000000000" width="10.000000000000" height="10.000000000000" xlink:href="#p" />
<use x="230.000000000000" y="300.000000000000" width="10.000000000000" height="10.000000000000" xlink:href="#p" />
<use x="250.000000000000" y="300.000000000000" width="10.000000000000" height="10.000000000000" xlink:href="#p" />
<use x="260.000000000000" y="300.000000000000" width="10.000000000000" height="10.000000000000" xlink:href="#p" />
<use x="290.000000000000" y="300.000000000000" width="10.000000000000" height="10.000000000000" xlink:href="#p" />
<use x="310.000000000000" y="300.000000000000" width="10.000000000000" height="10.000000000000" xlink:href="#p" />
<use x="320.000000000000" y="300.000000000000" width="10.000000000000" height="10.000000000000" xlink:href="#p" />
<use x="330.000000000000" y="300.000000000000" width="10.000000000000" height="10.000000000000" xlink:href="#p" />
<use x="350.000000000000" y="300.000000000000" width="10.000000000000" height="10.000000000000" xlink:href="#p" />
<use x="390.000000000000" y="300.000000000000" width="10.000000000000" height="10.000000000000" xlink:href="#p" />
<use x="400.000000000000" y="300.000000000000" width="10.000000000000" height="10.000000000000" xlink:href="#p" />
<use x="10.000000000000" y="310.000000000000" width="10.000000000000" height="10.000000000000" xlink:href="#p" />
<use x="20.000000000000" y="310.000000000000" width="10.000000000000" height="10.000000000000" xlink:href="#p" />
<use x="40.000000000000" y="310.000000000000" width="10.000000000000" height="10.000000000000" xlink:href="#p" />
<use x="80.000000000000" y="310.000000000000" width="10.000000000000" height="10.000000000000" xlink:href="#p" />
<use x="100.000000000000" y="310.000000000000" width="10.000000000000" height="10.000000000000" xlink:href="#p" />
<use x="120.000000000000" y="310.000000000000" width="10.000000000000" height="10.000000000000" xlink:href="#p" />
<use x="180.000000000000" y="310.000000000000" width="10.000000000000" height="10.000000000000" xlink:href="#p" />
<use x="200.000000000000" y="310.000000000000" width="10.000000000000" height="10.000000000000" xlink:href="#p" />
<use x="220.000000000000" y="310.000000000000" width="10.000000000000" height="10.000000000000" xlink:href="#p" />
<use x="230.000000000000" y="310.000000000000" width="10.000000000000" height="10.000000000000" xlink:href="#p" />
<use x="270.000000000000" y="310.000000000000" width="10.000000000000" height="10.000000000000" xlink:href="#p" />
<use x="290.000000000000" y="310.000000000000" width="10.000000000000" height="10.000000000000" xlink:href="#p" />
<use x="300.000000000000" y="310.000000000000" width="10.000000000000" height="10.000000000000" xlink:href="#p" />
<use x="320.000000000000" y="310.000000000000" width="10.000000000000" height="10.000000000000" xlink:href="#p" />
<use x="340.000000000000" y="310.000000000000" width="10.000000000000" height="10.000000000000" xlink:href="#p" />
<use x="350.000000000000" y="310.000000000000" width="10.000000000000" height="10.000000000000" xlink:href="#p" />
<use x="390.000000000000" y="310.000000000000" width="10.000000000000" height="10.000000000000" xlink:href="#p" />
<use x="0.000000000000" y="320.000000000000" width="10.000000000000" height="10.000000000000" xlink:href="#p" />
<use x="20.000000000000" y="320.000000000000" width="10.000000000000" height="10.000000000000" xlink:href="#p" />
<use x="50.000000000000" y="320.000000000000" width="10.000000000000" height="10.000000000000" xlink:href="#p" />
<use x="60.000000000000" y="320.000000000000" width="10.000000000000" height="10.000000000000" xlink:href="#p" />
<use x="70.000000000000" y="320.000000000000" width="10.000000000000" height="10.000000000000" xlink:href="#p" />
<use x="80.000000000000" y="320.000000000000" width="10.000000000000" height="10.000000000000" xlink:href="#p" />
<use x="90.000000000000" y="320.000000000000" width="10.000000000000" height="10.000000000000" xlink:href="#p" />
<use x="110.000000000000" y="320.000000000000" width="10.000000000000" height="10.000000000000" xlink:href="#p" />
<use x="120.000000000000" y="320.000000000000" width="10.000000000000" height="10.000000000000" xlink:href="#p" />
<use x="140.000000000000" y="320.000000000000" width="10.000000000000" height="10.000000000000" xlink:href="#p" />
<use x="170.000000000000" y="320.000000000000" width="10.000000000000" height="10.000000000000" xlink:href="#p" />
<use x="180.000000000000" y="320.000000000000" width="10.000000000000" height="10.000000000000" xlink:href="#p" />
<use x="190.000000000000" y="320.000000000000" width="10.000000000000" height="10.000000000000" xlink:href="#p" />
<use x="230.000000000000" y="320.000000000000" width="10.000000000000" height="10.000000000000" xlink:href="#p" />
<use x="240.000000000000" y="320.000000000000" width="10.000000000000" height="10.000000000000" xlink:href="#p" />
<use x="290.000000000000" y="320.000000000000" width="10.000000000000" height="10.000000000000" xlink:href="#p" />
<use x="310.000000000000" y="320.000000000000" width="10.000000000000" height="10.000000000000" xlink:href="#p" />
<use x="320.000000000000" y="320.000000000000" width="10.000000000000" height="10.000000000000" xlink:href="#p" />
<use x="330.000000000000" y="320.000000000000" width="10.000000000000" height="10.000000000000" xlink:href="#p" />
<use x="340.000000000000" y="320.000000000000" width="10.000000000000" height="10.000000000000" xlink:href="#p" />
<use x="350.000000000000" y="320.000000000000" width="10.000000000000" height="10.000000000000" xlink:href="#p" />
<use x="360.000000000000" y="320.000000000000" width="10.000000000000" height="10.000000000000" xlink:href="#p" />
<use x="400.000000000000" y="320.000000000000" width="10.000000000000" height="10.000000000000" xlink:href="#p" />
<use x="80.000000000000" y="330.000000000000" width="10.000000000000" height="10.000000000000" xlink:href="#p" />
<use x="90.000000000000" y="330.000000000000" width="10.000000000000" height="10.000000000000" xlink:href="#p" />
<use x="110.000000000000" y="330.000000000000" width="10.000000000000" height="10.000000000000" xlink:href="#p" />
<use x="130.000000000000" y="330.000000000000" width="10.000000000000" height="10.000000000000" xlink:href="#p" />
<use x="140.000000000000" y="330.000000000000" width="10.000000000000" height="10.000000000000" xlink:href="#p" />
<use x="170.000000000000" y="330.000000000000" width="10.000000000000" height="10.000000000000" xlink:href="#p" />
<use x="190.000000000000" y="330.000000000000" width="10.000000000000" height="10.000000000000" xlink:href="#p" />
<use x="200.000000000000" y="330.000000000000" width="10.000000000000" height="10.000000000000" xlink:href="#p" />
<use x="210.000000000000" y="330.000000000000" width="10.000000000000" height="10.000000000000" xlink:href="#p" />
<use x="220.000000000000" y="330.000000000000" width="10.000000000000" height="10.000000000000" xlink:href="#p" />
<use x="230.000000000000" y="330.000000000000" width="10.000000000000" height="10.000000000000" xlink:href="#p" />
<use x="240.000000000000" y="330.000000000000" width="10.000000000000" height="10.000000000000" xlink:href="#p" />
<use x="250.000000000000" y="330.000000000000" width="10.000000000000" height="10.000000000000" xlink:href="#p" />
<use x="260.000000000000" y="330.000000000000" width="10.000000000000" height="10.000000000000" xlink:href="#p" />
<use x="270.000000000000" y="330.000000000000" width="10.000000000000" height="10.000000000000" xlink:href="#p" />
<use x="280.000000000000" y="330.000000000000" width="10.000000000000" height="10.000000000000" xlink:href="#p" />
<use x="320.000000000000" y="330.000000000000" width="10.000000000000" height="10.000000000000" xlink:href="#p" />
<use x="360.000000000000" y="330.000000000000" width="10.000000000000" height="10.000000000000" xlink:href="#p" />
<use x="400.000000000000" y="330.000000000000" width="10.000000000000" height="10.000000000000" xlink:href="#p" />
<use x="0.000000000000" y="340.000000000000" width="10.000000000000" height="10.000000000000" xlink:href="#p" />
<use x="10.000000000000" y="340.000000000000" width="10.000000000000" height="10.000000000000" xlink:href="#p" />
<use x="20.000000000000" y="340.000000000000" width="10.000000000000" height="10.000000000000" xlink:href="#p" />
<use x="30.000000000000" y="340.000000000000" width="10.000000000000" height="10.000000000000" xlink:href="#p" />
<use x="40.000000000000" y="340.000000000000" width="10.000000000000" height="10.000000000000" xlink:href="#p" />
<use x="50.000000000000" y="340.000000000000" width="10.000000000000" height="10.000000000000" xlink:href="#p" />
<use x="60.000000000000" y="340.000000000000" width="10.000000000000" height="10.000000000000" xlink:href="#p" />
<use x="90.000000000000" y="340.000000000000" width="10.000000000000" height="10.000000000000" xlink:href="#p" />
<use x="130.000000000000" y="340.000000000000" width="10.000000000000" height="10.000000000000" xlink:href="#p" />
<use x="140.000000000000" y="340.000000000000" width="10.000000000000" height="10.000000000000" xlink:href="#p" />
<use x="160.000000000000" y="340.000000000000" width="10.000000000000" height="10.000000000000" xlink:href="#p" />
<use x="170.000000000000" y="340.000000000000" width="10.000000000000" height="10.000000000000" xlink:href="#p" />
<use x="180.000000000000" y="340.000000000000" width="10.000000000000" height="10.000000000000" xlink:href="#p" />
<use x="210.000000000000" y="340.000000000000" width="10.000000000000" height="10.000000000000" xlink:href="#p" />
<use x="290.000000000000" y="340.000000000000" width="10.000000000000" height="10.000000000000" xlink:href="#p" />
<use x="320.000000000000" y="340.000000000000" width="10.000000000000" height="10.000000000000" xlink:href="#p" />
<use x="340.000000000000" y="340.000000000000" width="10.000000000000" height="10.000000000000" xlink:href="#p" />
<use x="360.000000000000" y="340.000000000000" width="10.000000000000" height="10.000000000000" xlink:href="#p" />
<use x="380.000000000000" y="340.000000000000" width="10.000000000000" height="10.000000000000" xlink:href="#p" />
<use x="390.000000000000" y="340.000000000000" width="10.000000000000" height="10.000000000000" xlink:href="#p" />
<use x="400.000000000000" y="340.000000000000" width="10.000000000000" height="10.000000000000" xlink:href="#p" />
<use x="0.000000000000" y="350.000000000000" width="10.000000000000" height="10.000000000000" xlink:href="#p" />
<use x="60.000000000000" y="350.000000000000" width="10.000000000000" height="10.000000000000" xlink:href="#p" />
<use x="80.000000000000" y="350.000000000000" width="10.000000000000" height="10.000000000000" xlink:href="#p" />
<use x="100.000000000000" y="350.000000000000" width="10.000000000000" height="10.000000000000" xlink:href="#p" />
<use x="110.000000000000" y="350.000000000000" width="10.000000000000" height="10.000000000000" xlink:href="#p" />
<use x="120.000000000000" y="350.000000000000" width="10.000000000000" height="10.000000000000" xlink:href="#p" />
<use x="140.000000000000" y="350.000000000000" width="10.000000000000" height="10.000000000000" xlink:href="#p" />
<use x="150.000000000000" y="350.000000000000" width="10.000000000000" height="10.000000000000" xlink:href="#p" />
<use x="170.000000000000" y="350.000000000000" width="10.000000000000" height="10.000000000000" xlink:href="#p" />
<use x="180.000000000000" y="350.000000000000" width="10.000000000000" height="10.000000000000" xlink:href="#p" />
<use x="200.000000000000" y="350.000000000000" width="10.000000000000" height="10.000000000000" xlink:href="#p" />
<use x="210.000000000000" y="350.000000000000" width="10.000000000000" height="10.000000000000" xlink:href="#p" />
<use x="230.000000000000" y="350.000000000000" width="10.000000000000" height="10.000000000000" xlink:href="#p" />
<use x="240.000000000000" y="350.000000000000" width="10.000000000000" height="10.000000000000" xlink:href="#p" />
<use x="260.000000000000" y="350.000000000000" width="10.000000000000" height="10.000000000000" xlink:href="#p" />
<use x="270.000000000000" y="350.000000000000" width="10.000000000000" height="10.000000000000" xlink:href="#p" />
<use x="280.000000000000" y="350.000000000000" width="10.000000000000" height="10.000000000000" xlink:href="#p" />
<use x="310.000000000000" y="350.000000000000" width="10.000000000000" height="10.000000000000" xlink:href="#p" />
<use x="320.000000000000" y="350.000000000000" width="10.000000000000" height="10.000000000000" xlink:href="#p" />
<use x="360.000000000000" y="350.000000000000" width="10.000000000000" height="10.000000000000" xlink:href="#p" />
<use x="390.000000000000" y="350.000000000000" width="10.000000000000" height="10.000000000000" xlink:href="#p" />
<use x="400.000000000000" y="350.000000000000" width="10.000000000000" height="10.000000000000" xlink:href="#p" />
<use x="0.000000000000" y="360.000000000000" width="10.000000000000" height="10.000000000000" xlink:href="#p" />
<use x="20.000000000000" y="360.000000000000" width="10.000000000000" height="10.000000000000" xlink:href="#p" />
<use x="30.000000000000" y="360.000000000000" width="10.000000000000" height="10.000000000000" xlink:href="#p" />
<use x="40.000000000000" y="360.000000000000" width="10.000000000000" height="10.000000000000" xlink:href="#p" />
<use x="60.000000000000" y="360.000000000000" width="10.000000000000" height="10.000000000000" xlink:href="#p" />
<use x="80.000000000000" y="360.000000000000" width="10.000000000000" height="10.000000000000" xlink:href="#p" />
<use x="90.000000000000" y="360.000000000000" width="10.000000000000" height="10.000000000000" xlink:href="#p" />
<use x="130.000000000000" y="360.000000000000" width="10.000000000000" height="10.000000000000" xlink:href="#p" />
<use x="170.000000000000" y="360.000000000000" width="10.000000000000" height="10.000000000000" xlink:href="#p" />
<use x="190.000000000000" y="360.000000000000" width="10.000000000000" height="10.000000000000" xlink:href="#p" />
<use x="220.000000000000" y="360.000000000000" width="10.000000000000" height="10.000000000000" xlink:href="#p" />
<use x="240.000000000000" y="360.000000000000" width="10.000000000000" height="10.000000000000" xlink:href="#p" />
<use x="250.000000000000" y="360.000000000000" width="10.000000000000" height="10.000000000000" xlink:href="#p" />
<use x="260.000000000000" y="360.000000000000" width="10.000000000000" height="10.000000000000" xlink:href="#p" />
<use x="320.000000000000" y="360.000000000000" width="10.000000000000" height="10.000000000000" xlink:href="#p" />
<use x="330.000000000000" y="360.000000000000" width="10.000000000000" height="10.000000000000" xlink:href="#p" />
<use x="340.000000000000" y="360.000000000000" width="10.000000000000" height="10.000000000000" xlink:href="#p" />
<use x="350.000000000000" y="360.000000000000" width="10.000000000000" height="10.000000000000" xlink:href="#p" />
<use x="360.000000000000" y="360.000000000000" width="10.000000000000" height="10.000000000000" xlink:href="#p" />
<use x="370.000000000000" y="360.000000000000" width="10.000000000000" height="10.000000000000" xlink:href="#p" />
<use x="390.000000000000" y="360.000000000000" width="10.000000000000" height="10.000000000000" xlink:href="#p" />
<use x="0.000000000000" y="370.000000000000" width="10.000000000000" height="10.000000000000" xlink:href="#p" />
<use x="20.000000000000" y="370.000000000000" width="10.000000000000" height="10.000000000000" xlink:href="#p" />
<use x="30.000000000000" y="370.000000000000" width="10.000000000000" height="10.000000000000" xlink:href="#p" />
<use x="40.000000000000" y="370.000000000000" width="10.000000000000" height="10.000000000000" xlink:href="#p" />
<use x="60.000000000000" y="370.000000000000" width="10.000000000000" height="10.000000000000" xlink:href="#p" />
<use x="100.000000000000" y="370.000000000000" width="10.000000000000" height="10.000000000000" xlink:href="#p" />
<use x="120.000000000000" y="370.000000000000" width="10.000000000000" height="10.000000000000" xlink:href="#p" />
<use x="140.000000000000" y="370.000000000000" width="10.000000000000" height="10.000000000000" xlink:href="#p" />
<use x="180.000000000000" y="370.000000000000" width="10.000000000000" height="10.000000000000" xlink:href="#p" />
<use x="190.000000000000" y="370.000000000000" width="10.000000000000" height="10.000000000000" xlink:href="#p" />
<use x="200.000000000000" y="370.000000000000" width="10.000000000000" height="10.000000000000" xlink:href="#p" />
<use x="220.000000000000" y="370.000000000000" width="10.000000000000" height="10.000000000000" xlink:href="#p" />
<use x="230.000000000000" y="370.000000000000" width="10.000000000000" height="10.000000000000" xlink:href="#p" />
<use x="240.000000000000" y="370.000000000000" width="10.000000000000" height="10.000000000000" xlink:href="#p" />
<use x="260.000000000000" y="370.000000000000" width="10.000000000000" height="10.000000000000" xlink:href="#p" />
<use x="280.000000000000" y="370.000000000000" width="10.000000000000" height="10.000000000000" xlink:href="#p" />
<use x="310.000000000000" y="370.000000000000" width="10.000000000000" height="10.000000000000" xlink:href="#p" />
<use x="330.000000000000" y="370.000000000000" width="10.000000000000" height="10.000000000000" xlink:href="#p" />
<use x="360.000000000000" y="370.000000000000" width="10.000000000000" height="10.000000000000" xlink:href="#p" />
<use x="380.000000000000" y="370.000000000000" width="10.000000000000" height="10.000000000000" xlink:href="#p" />
<use x="0.000000000000" y="380.000000000000" width="10.000000000000" height="10.000000000000" xlink:href="#p" />
<use x="20.000000000000" y="380.000000000000" width="10.000000000000" height="10.000000000000" xlink:href="#p" />
<use x="30.000000000000" y="380.000000000000" width="10.000000000000" height="10.000000000000" xlink:href="#p" />
<use x="40.000000000000" y="380.000000000000" width="10.000000000000" height="10.000000000000" xlink:href="#p" />
<use x="60.000000000000" y="380.000000000000" width="10.000000000000" height="10.000000000000" xlink:href="#p" />
<use x="80.000000000000" y="380.000000000000" width="10.000000000000" height="10.000000000000" xlink:href="#p" />
<use x="90.000000000000" y="380.000000000000" width="10.000000000000" height="10.000000000000" xlink:href="#p" />
<use x="120.000000000000" y="380.000000000000" width="10.000000000000" height="10.000000000000" xlink:href="#p" />
<use x="130.000000000000" y="380.000000000000" width="10.000000000000" height="10.000000000000" xlink:href="#p" />
<use x="160.000000000000" y="380.000000000000" width="10.000000000000" height="10.000000000000" xlink:href="#p" />
<use x="180.000000000000" y="380.000000000000" width="10.000000000000" height="10.000000000000" xlink:href="#p" />
<use x="190.000000000000" y="380.000000000000" width="10.000000000000" height="10.000000000000" xlink:href="#p" />
<use x="210.000000000000" y="380.000000000000" width="10.000000000000" height="10.000000000000" xlink:href="#p" />
<use x="220.000000000000" y="380.000000000000" width="10.000000000000" height="10.000000000000" xlink:href="#p" />
<use x="230.000000000000" y="380.000000000000" width="10.000000000000" height="10.000000000000" xlink:href="#p" />
<use x="260.000000000000" y="380.000000000000" width="10.000000000000" height="10.000000000000" xlink:href="#p" />
<use x="300.000000000000" y="380.000000000000" width="10.000000000000" height="10.000000000000" xlink:href="#p" />
<use x="320.000000000000" y="380.000000000000" width="10.000000000000" height="10.000000000000" xlink:href="#p" />
<use x="350.000000000000" y="380.000000000000" width="10.000000000000" height="10.000000000000" xlink:href="#p" />
<use x="360.000000000000" y="380.000000000000" width="10.000000000000" height="10.000000000000" xlink:href="#p" />
<use x="400.000000000000" y="380.000000000000" width="10.000000000000" height="10.000000000000" xlink:href="#p" />
<use x="0.000000000000" y="390.000000000000" width="10.000000000000" height="10.000000000000" xlink:href="#p" />
<use x="60.000000000000" y="390.000000000000" width="10.000000000000" height="10.000000000000" xlink:href="#p" />
<use x="90.000000000000" y="390.000000000000" width="10.000000000000" height="10.000000000000" xlink:href="#p" />
<use x="110.000000000000" y="390.000000000000" width="10.000000000000" height="10.000000000000" xlink:href="#p" />
<use x="160.000000000000" y="390.000000000000" width="10.000000000000" height="10.000000000000" xlink:href="#p" />
<use x="180.000000000000" y="390.000000000000" width="10.000000000000" height="10.000000000000" xlink:href="#p" />
<use x="220.000000000000" y="390.000000000000" width="10.000000000000" height="10.000000000000" xlink:href="#p" />
<use x="230.000000000000" y="390.000000000000" width="10.000000000000" height="10.000000000000" xlink:href="#p" />
<use x="250.000000000000" y="390.000000000000" width="10.000000000000" height="10.000000000000" xlink:href="#p" />
<use x="280.000000000000" y="390.000000000000" width="10.000000000000" height="10.000000000000" xlink:href="#p" />
<use x="290.000000000000" y="390.000000000000" width="10.000000000000" height="10.000000000000" xlink:href="#p" />
<use x="320.000000000000" y="390.000000000000" width="10.000000000000" height="10.000000000000" xlink:href="#p" />
<use x="340.000000000000" y="390.000000000000" width="10.000000000000" height="10.000000000000" xlink:href="#p" />
<use x="350.000000000000" y="390.000000000000" width="10.000000000000" height="10.000000000000" xlink:href="#p" />
<use x="380.000000000000" y="390.000000000000" width="10.000000000000" height="10.000000000000" xlink:href="#p" />
<use x="390.000000000000" y="390.000000000000" width="10.000000000000" height="10.000000000000" xlink:href="#p" />
<use x="0.000000000000" y="400.000000000000" width="10.000000000000" height="10.000000000000" xlink:href="#p" />
<use x="10.000000000000" y="400.000000000000" width="10.000000000000" height="10.000000000000" xlink:href="#p" />
<use x="20.000000000000" y="400.000000000000" width="10.000000000000" height="10.000000000000" xlink:href="#p" />
<use x="30.000000000000" y="400.000000000000" width="10.000000000000" height="10.000000000000" xlink:href="#p" />
<use x="40.000000000000" y="400.000000000000" width="10.000000000000" height="10.000000000000" xlink:href="#p" />
<use x="50.000000000000" y="400.000000000000" width="10.000000000000" height="10.000000000000" xlink:href="#p" />
<use x="60.000000000000" y="400.000000000000" width="10.000000000000" height="10.000000000000" xlink:href="#p" />
<use x="120.000000000000" y="400.000000000000" width="10.000000000000" height="10.000000000000" xlink:href="#p" />
<use x="150.000000000000" y="400.000000000000" width="10.000000000000" height="10.000000000000" xlink:href="#p" />
<use x="160.000000000000" y="400.000000000000" width="10.000000000000" height="10.000000000000" xlink:href="#p" />
<use x="170.000000000000" y="400.000000000000" width="10.000000000000" height="10.000000000000" xlink:href="#p" />
<use x="190.000000000000" y="400.000000000000" width="10.000000000000" height="10.000000000000" xlink:href="#p" />
<use x="230.000000000000" y="400.000000000000" width="10.000000000000" height="10.000000000000" xlink:href="#p" />
<use x="260.000000000000" y="400.000000000000" width="10.000000000000" height="10.000000000000" xlink:href="#p" />
<use x="270.000000000000" y="400.000000000000" width="10.000000000000" height="10.000000000000" xlink:href="#p" />
<use x="280.000000000000" y="400.000000000000" width="10.000000000000" height="10.000000000000" xlink:href="#p" />
<use x="290.000000000000" y="400.000000000000" width="10.000000000000" height="10.000000000000" xlink:href="#p" />
<use x="310.000000000000" y="400.000000000000" width="10.000000000000" height="10.000000000000" xlink:href="#p" />
<use x="320.000000000000" y="400.000000000000" width="10.000000000000" height="10.000000000000" xlink:href="#p" />
<use x="330.000000000000" y="400.000000000000" width="10.000000000000" height="10.000000000000" xlink:href="#p" />
<use x="350.000000000000" y="400.000000000000" width="10.000000000000" height="10.000000000000" xlink:href="#p" />
<use x="360.000000000000" y="400.000000000000" width="10.000000000000" height="10.000000000000" xlink:href="#p" />
<use x="380.000000000000" y="400.000000000000" width="10.000000000000" height="10.000000000000" xlink:href="#p" />
<use x="390.000000000000" y="400.000000000000" width="10.000000000000" height="10.000000000000" xlink:href="#p" />
<use x="400.000000000000" y="400.000000000000" width="10.000000000000" height="10.000000000000" xlink:href="#p" />
</g>
</svg>