<?xml version="1.0" encoding="utf-8"?>
<svg width="410" height="410" viewBox="0 0 410 410" xmlns="http://www.w3.org/2000/svg" xmlns:xlink="http://www.w3.org/1999/xlink">
<rect width="410" height="410" fill="#ffffff"/>
<defs>
<symbol id="p" viewBox="0 0 1 1">
<rect width="1" height="1"/>
</symbol>
</defs>
<g shape-rendering="crispEdges" fill="#000000">
<use x="0.000000000000" y="0.000000000000" width="14.137931034483" height="14.137931034483" xlink:href="#p" />
<use x="14.137931034483" y="0.000000000000" width="14.137931034483" height="14.137931034483" xlink:href="#p" />
<use x="28.275862068966" y="0.000000000000" width="14.137931034483" height="14.137931034483" xlink:href="#p" />
<use x="42.413793103448" y="0.000000000000" width="14.137931034483" height="14.137931034483" xlink:href="#p" />
<use x="56.551724137931" y="0.000000000000" width="14.137931034483" height="14.137931034483" xlink:href="#p" />
<use x="70.689655172414" y="0.000000000000" width="14.137931034483" height="14.137931034483" xlink:href="#p" />
<use x="84.827586206897" y="0.000000000000" width="14.137931034483" height="14.137931034483" xlink:href="#p" />
<use x="141.379310344828" y="0.000000000000" width="14.137931034483" height="14.137931034483" xlink:href="#p" />
<use x="197.931034482759" y="0.000000000000" width="14.137931034483" height="14.137931034483" xlink:href="#p" />
<use x="212.068965517241" y="0.000000000000" width="14.137931034483" height="14.137931034483" xlink:href="#p" />
<use x="226.206896551724" y="0.000000000000" width="14.137931034483" height="14.137931034483" xlink:href="#p" />
<use x="240.344827586207" y="0.000000000000" width="14.137931034483" height="14.137931034483" xlink:href="#p" />
<use x="254.482758620690" y="0.000000000000" width="14.137931034483" height="14.137931034483" xlink:href="#p" />
<use x="311.034482758621" y="0.000000000000" width="14.137931034483" height="14.137931034483" xlink:href="#p" />
<use x="325.172413793103" y="0.000000000000" width="14.137931034483" height="14.137931034483" xlink:href="#p" />
<use x="339.310344827586" y="0.000000000000" width="14.137931034483" height="14.137931034483" xlink:href="#p" />
<use x="353.448275862069" y="0.000000000000" width="14.137931034483" height="14.137931034483" xlink:href="#p" />
<use x="367.586206896552" y="0.000000000000" width="14.137931034483" height="14.137931034483" xlink:href="#p" />
<use x="381.724137931034" y="0.000000000000" width="14.137931034483" height="14.137931034483" xlink:href="#p" />
<use x="395.862068965517" y="0.000000000000" width="14.137931034483" height="14.137931034483" xlink:href="#p" />
<use x="0.000000000000" y="14.137931034483" width="14.137931034483" height="14.137931034483" xlink:href="#p" />
<use x="84.827586206897" y="14.137931034483" width="14.137931034483" height="14.137931034483" xlink:href="#p" />
<use x="155.517241379310" y="14.137931034483" width="14.137931034483" height="14.137931034483" xlink:href="#p" />
<use x="183.793103448276" y="14.137931034483" width="14.137931034483" height="14.137931034483" xlink:href="#p" />
<use x="212.068965517241" y="14.137931034483" width="14.137931034483" height="14.137931034483" xlink:href="#p" />
<use x="240.344827586207" y="14.137931034483" width="14.137931034483" height="14.137931034483" xlink:href="#p" />
<use x="268.620689655172" y="14.137931034483" width="14.137931034483" height="14.137931034483" xlink:href="#p" />
<use x="311.034482758621" y="14.137931034483" width="14.137931034483" height="14.137931034483" xlink:href="#p" />
<use x="395.862068965517" y="14.137931034483" width="14.137931034483" height="14.137931034483" xlink:href="#p" />
<use x="0.000000000000" y="28.275862068966" width="14.137931034483" height="14.137931034483" xlink:href="#p" />
<use x="28.275862068966" y="28.275862068966" width="14.137931034483" height="14.137931034483" xlink:href="#p" />
<use x="42.413793103448" y="28.275862068966" width="14.137931034483" height="14.137931034483" xlink:href="#p" />
<use x="56.551724137931" y="28.275862068966" width="14.137931034483" height="14.137931034483" xlink:href="#p" />
<use x="84.827586206897" y="28.275862068966" width="14.137931034483" height="14.137931034483" xlink:href="#p" />
<use x="113.103448275862" y="28.275862068966" width="14.137931034483" height="14.137931034483" xlink:href="#p" />
<use x="127.241379310345" y="28.275862068966" width="14.137931034483" height="14.137931034483" xlink:href="#p" />
<use x="183.793103448276" y="28.275862068966" width="14.137931034483" height="14.137931034483" xlink:href="#p" />
<use x="226.206896551724" y="28.275862068966" width="14.137931034483" height="14.137931034483" xlink:href="#p" />
<use x="240.344827586207" y="28.275862068966" width="14.137931034483" height="14.137931034483" xlink:href="#p" />
<use x="268.620689655172" y="28.275862068966" width="14.137931034483" height="14.137931034483" xlink:href="#p" />
<use x="311.034482758621" y="28.275862068966" width="14.137931034483" height="14.137931034483" xlink:href="#p" />
<use x="339.310344827586" y="28.275862068966" width="14.137931034483" height="14.137931034483" xlink:href="#p" />
<use x="353.448275862069" y="28.275862068966" width="14.137931034483" height="14.137931034483" xlink:href="#p" />
<use x="367.586206896552" y="28.275862068966" width="14.137931034483" height="14.137931034483" xlink:href="#p" />
<use x="395.862068965517" y="28.275862068966" width="14.137931034483" height="14.137931034483" xlink:href="#p" />
<use x="0.000000000000" y="42.413793103448" width="14.137931034483" height="14.137931034483" xlink:href="#p" />
<use x="28.275862068966" y="42.413793103448" width="14.137931034483" height="14.137931034483" xlink:href="#p" />
<use x="42.413793103448" y="42.413793103448" width="14.137931034483" height="14.137931034483" xlink:href="#p" />
<use x="56.551724137931" y="42.413793103448" width="14.137931034483" height="14.137931034483" xlink:href="#p" />
<use x="84.827586206897" y="42.413793103448" width="14.137931034483" height="14.137931034483" xlink:href="#p" />
<use x="127.241379310345" y="42.413793103448" width="14.137931034483" height="14.137931034483" xlink:href="#p" />
<use x="155.517241379310" y="42.413793103448" width="14.137931034483" height="14.137931034483" xlink:href="#p" />
<use x="183.793103448276" y="42.413793103448" width="14.137931034483" height="14.137931034483" xlink:href="#p" />
<use x="212.068965517241" y="42.413793103448" width="14.137931034483" height="14.137931034483" xlink:href="#p" />
<use x="226.206896551724" y="42.413793103448" width="14.137931034483" height="14.137931034483" xlink:href="#p" />
<use x="254.482758620690" y="42.413793103448" width="14.137931034483" height="14.137931034483" xlink:href="#p" />
<use x="311.034482758621" y="42.413793103448" width="14.137931034483" height="14.137931034483" xlink:href="#p" />
<use x="339.310344827586" y="42.413793103448" width="14.137931034483" height="14.137931034483" xlink:href="#p" />
<use x="353.448275862069" y="42.413793103448" width="14.137931034483" height="14.137931034483" xlink:href="#p" />
<use x="367.586206896552" y="42.413793103448" width="14.137931034483" height="14.137931034483" xlink:href="#p" />
<use x="395.862068965517" y="42.413793103448" width="14.137931034483" height="14.137931034483" xlink:href="#p" />
<use x="0.000000000000" y="56.551724137931" width="14.137931034483" height="14.137931034483" xlink:href="#p" />
<use x="28.275862068966" y="56.551724137931" width="14.137931034483" height="14.137931034483" xlink:href="#p" />
<use x="42.413793103448" y="56.551724137931" width="14.137931034483" height="14.137931034483" xlink:href="#p" />
<use x="56.551724137931" y="56.551724137931" width="14.137931034483" height="14.137931034483" xlink:href="#p" />
<use x="84.827586206897" y="56.551724137931" width="14.137931034483" height="14.137931034483" xlink:href="#p" />
<use x="113.103448275862" y="56.551724137931" width="14.137931034483" height="14.137931034483" xlink:href="#p" />
<use x="141.379310344828" y="56.551724137931" width="14.137931034483" height="14.137931034483" xlink:href="#p" />
<use x="169.655172413793" y="56.551724137931" width="14.137931034483" height="14.137931034483" xlink:href="#p" />
<use x="183.793103448276" y="56.551724137931" width="14.137931034483" height="14.137931034483" xlink:href="#p" />
<use x="197.931034482759" y="56.551724137931" width="14.137931034483" height="14.137931034483" xlink:href="#p" />
<use x="226.206896551724" y="56.551724137931" width="14.137931034483" height="14.137931034483" xlink:href="#p" />
<use x="240.344827586207" y="56.551724137931" width="14.137931034483" height="14.137931034483" xlink:href="#p" />
<use x="282.758620689655" y="56.551724137931" width="14.137931034483" height="14.137931034483" xlink:href="#p" />
<use x="311.034482758621" y="56.551724137931" width="14.137931034483" height="14.137931034483" xlink:href="#p" />
<use x="339.310344827586" y="56.551724137931" width="14.137931034483" height="14.137931034483" xlink:href="#p" />
<use x="353.448275862069" y="56.551724137931" width="14.137931034483" height="14.137931034483" xlink:href="#p" />
<use x="367.586206896552" y="56.551724137931" width="14.137931034483" height="14.137931034483" xlink:href="#p" />
<use x="395.862068965517" y="56.551724137931" width="14.137931034483" height="14.137931034483" xlink:href="#p" />
<use x="0.000000000000" y="70.689655172414" width="14.137931034483" height="14.137931034483" xlink:href="#p" />
<use x="84.827586206897" y="70.689655172414" width="14.137931034483" height="14.137931034483" xlink:href="#p" />
<use x="113.103448275862" y="70.689655172414" width="14.137931034483" height="14.137931034483" xlink:href="#p" />
<use x="169.655172413793" y="70.689655172414" width="14.137931034483" height="14.137931034483" xlink:href="#p" />
<use x="197.931034482759" y="70.689655172414" width="14.137931034483" height="14.137931034483" xlink:href="#p" />
<use x="212.068965517241" y="70.689655172414" width="14.137931034483" height="14.137931034483" xlink:href="#p" />
<use x="240.344827586207" y="70.689655172414" width="14.137931034483" height="14.137931034483" xlink:href="#p" />
<use x="254.482758620690" y="70.689655172414" width="14.137931034483" height="14.137931034483" xlink:href="#p" />
<use x="268.620689655172" y="70.689655172414" width="14.137931034483" height="14.137931034483" xlink:href="#p" />
<use x="311.034482758621" y="70.689655172414" width="14.137931034483" height="14.137931034483" xlink:href="#p" />
<use x="395.862068965517" y="70.689655172414" width="14.137931034483" height="14.137931034483" xlink:href="#p" />
<use x="0.000000000000" y="84.827586206897" width="14.137931034483" height="14.137931034483" xlink:href="#p" />
<use x="14.137931034483" y="84.827586206897" width="14.137931034483" height="14.137931034483" xlink:href="#p" />
<use x="28.275862068966" y="84.827586206897" width="14.137931034483" height="14.137931034483" xlink:href="#p" />
<use x="42.413793103448" y="84.827586206897" width="14.137931034483" height="14.137931034483" xlink:href="#p" />
<use x="56.551724137931" y="84.827586206897" width="14.137931034483" height="14.137931034483" xlink:href="#p" />
<use x="70.689655172414" y="84.827586206897" width="14.137931034483" height="14.137931034483" xlink:href="#p" />
<use x="84.827586206897" y="84.827586206897" width="14.137931034483" height="14.137931034483" xlink:href="#p" />
<use x="113.103448275862" y="84.827586206897" width="14.137931034483" height="14.137931034483" xlink:href="#p" />
<use x="141.379310344828" y="84.827586206897" width="14.137931034483" height="14.137931034483" xlink:href="#p" />
<use x="169.655172413793" y="84.827586206897" width="14.137931034483" height="14.137931034483" xlink:href="#p" />
<use x="197.931034482759" y="84.827586206897" width="14.137931034483" height="14.137931034483" xlink:href="#p" />
<use x="226.206896551724" y="84.827586206897" width="14.137931034483" height="14.137931034483" xlink:href="#p" />
<use x="254.482758620690" y="84.827586206897" width="14.137931034483" height="14.137931034483" xlink:href="#p" />
<use x="282.758620689655" y="84.827586206897" width="14.137931034483" height="14.137931034483" xlink:href="#p" />
<use x="311.034482758621" y="84.827586206897" width="14.137931034483" height="14.137931034483" xlink:href="#p" />
<use x="325.172413793103" y="84.827586206897" width="14.137931034483" height="14.137931034483" xlink:href="#p" />
<use x="339.310344827586" y="84.827586206897" width="14.137931034483" height="14.137931034483" xlink:href="#p" />
<use x="353.448275862069" y="84.827586206897" width="14.137931034483" height="14.137931034483" xlink:href="#p" />
<use x="367.586206896552" y="84.827586206897" width="14.137931034483" height="14.137931034483" xlink:href="#p" />
<use x="381.724137931034" y="84.827586206897" width="14.137931034483" height="14.137931034483" xlink:href="#p" />
<use x="395.862068965517" y="84.827586206897" width="14.137931034483" height="14.137931034483" xlink:href="#p" />
<use x="127.241379310345" y="98.965517241379" width="14.137931034483" height="14.137931034483" xlink:href="#p" />
<use x="141.379310344828" y="98.965517241379" width="14.137931034483" height="14.137931034483" xlink:href="#p" />
<use x="155.517241379310" y="98.965517241379" width="14.137931034483" height="14.137931034483" xlink:href="#p" />
<use x="169.655172413793" y="98.965517241379" width="14.137931034483" height="14.137931034483" xlink:href="#p" />
<use x="197.931034482759" y="98.965517241379" width="14.137931034483" height="14.137931034483" xlink:href="#p" />
<use x="240.344827586207" y="98.965517241379" width="14.137931034483" height="14.137931034483" xlink:href="#p" />
<use x="254.482758620690" y="98.965517241379" width="14.137931034483" height="14.137931034483" xlink:href="#p" />
<use x="282.758620689655" y="98.965517241379" width="14.137931034483" height="14.137931034483" xlink:href="#p" />
<use x="14.137931034483" y="113.103448275862" width="14.137931034483" height="14.137931034483" xlink:href="#p" />
<use x="56.551724137931" y="113.103448275862" width="14.137931034483" height="14.137931034483" xlink:href="#p" />
<use x="84.827586206897" y="113.103448275862" width="14.137931034483" height="14.137931034483" xlink:href="#p" />
<use x="113.103448275862" y="113.103448275862" width="14.137931034483" height="14.137931034483" xlink:href="#p" />
<use x="169.655172413793" y="113.103448275862" width="14.137931034483" height="14.137931034483" xlink:href="#p" />
<use x="240.344827586207" y="113.103448275862" width="14.137931034483" height="14.137931034483" xlink:href="#p" />
<use x="296.896551724138" y="113.103448275862" width="14.137931034483" height="14.137931034483" xlink:href="#p" />
<use x="325.172413793103" y="113.103448275862" width="14.137931034483" height="14.137931034483" xlink:href="#p" />
<use x="339.310344827586" y="113.103448275862" width="14.137931034483" height="14.137931034483" xlink:href="#p" />
<use x="367.586206896552" y="113.103448275862" width="14.137931034483" height="14.137931034483" xlink:href="#p" />
<use x="42.413793103448" y="127.241379310345" width="14.137931034483" height="14.137931034483" xlink:href="#p" />
<use x="70.689655172414" y="127.241379310345" width="14.137931034483" height="14.137931034483" xlink:href="#p" />
<use x="98.965517241379" y="127.241379310345" width="14.137931034483" height="14.137931034483" xlink:href="#p" />
<use x="113.103448275862" y="127.241379310345" width="14.137931034483" height="14.137931034483" xlink:href="#p" />
<use x="127.241379310345" y="127.241379310345" width="14.137931034483" height="14.137931034483" xlink:href="#p" />
<use x="141.379310344828" y="127.241379310345" width="14.137931034483" height="14.137931034483" xlink:href="#p" />
<use x="183.793103448276" y="127.241379310345" width="14.137931034483" height="14.137931034483" xlink:href="#p" />
<use x="197.931034482759" y="127.241379310345" width="14.137931034483" height="14.137931034483" xlink:href="#p" />
<use x="212.068965517241" y="127.241379310345" width="14.137931034483" height="14.137931034483" xlink:href="#p" />
<use x="282.758620689655" y="127.241379310345" width="14.137931034483" height="14.137931034483" xlink:href="#p" />
<use x="296.896551724138" y="127.241379310345" width="14.137931034483" height="14.137931034483" xlink:href="#p" />
<use x="311.034482758621" y="127.241379310345" width="14.137931034483" height="14.137931034483" xlink:href="#p" />
<use x="325.172413793103" y="127.241379310345" width="14.137931034483" height="14.137931034483" xlink:href="#p" />
<use x="339.310344827586" y="127.241379310345" width="14.137931034483" height="14.137931034483" xlink:href="#p" />
<use x="381.724137931034" y="127.241379310345" width="14.137931034483" height="14.137931034483" xlink:href="#p" />
<use x="395.862068965517" y="127.241379310345" width="14.137931034483" height="14.137931034483" xlink:href="#p" />
<use x="0.000000000000" y="141.379310344828" width="14.137931034483" height="14.137931034483" xlink:href="#p" />
<use x="28.275862068966" y="141.379310344828" width="14.137931034483" height="14.137931034483" xlink:href="#p" />
<use x="42.413793103448" y="141.379310344828" width="14.137931034483" height="14.137931034483" xlink:href="#p" />
<use x="84.827586206897" y="141.379310344828" width="14.137931034483" height="14.137931034483" xlink:href="#p" />
<use x="113.103448275862" y="141.379310344828" width="14.137931034483" height="14.137931034483" xlink:href="#p" />
<use x="127.241379310345" y="141.379310344828" width="14.137931034483" height="14.137931034483" xlink:href="#p" />
<use x="155.517241379310" y="141.379310344828" width="14.137931034483" height="14.137931034483" xlink:href="#p" />
<use x="183.793103448276" y="141.379310344828" width="14.137931034483" height="14.137931034483" xlink:href="#p" />
<use x="197.931034482759" y="141.379310344828" width="14.137931034483" height="14.137931034483" xlink:href="#p" />
<use x="240.344827586207" y="141.379310344828" width="14.137931034483" height="14.137931034483" xlink:href="#p" />
<use x="282.758620689655" y="141.379310344828" width="14.137931034483" height="14.137931034483" xlink:href="#p" />
<use x="296.896551724138" y="141.379310344828" width="14.137931034483" height="14.137931034483" xlink:href="#p" />
<use x="325.172413793103" y="141.379310344828" width="14.137931034483" height="14.137931034483" xlink:href="#p" />
<use x="339.310344827586" y="141.379310344828" width="14.137931034483" height="14.137931034483" xlink:href="#p" />
<use x="353.448275862069" y="141.379310344828" width="14.137931034483" height="14.137931034483" xlink:href="#p" />
<use x="367.586206896552" y="141.379310344828" width="14.137931034483" height="14.137931034483" xlink:href="#p" />
<use x="395.862068965517" y="141.379310344828" width="14.137931034483" height="14.137931034483" xlink:href="#p" />
<use x="0.000000000000" y="155.517241379310" width="14.137931034483" height="14.137931034483" xlink:href="#p" />
<use x="56.551724137931" y="155.517241379310" width="14.137931034483" height="14.137931034483" xlink:href="#p" />
<use x="113.103448275862" y="155.517241379310" width="14.137931034483" height="14.137931034483" xlink:href="#p" />
<use x="141.379310344828" y="155.517241379310" width="14.137931034483" height="14.137931034483" xlink:href="#p" />
<use x="155.517241379310" y="155.517241379310" width="14.137931034483" height="14.137931034483" xlink:href="#p" />
<use x="169.655172413793" y="155.517241379310" width="14.137931034483" height="14.137931034483" xlink:href="#p" />
<use x="240.344827586207" y="155.517241379310" width="14.137931034483" height="14.137931034483" xlink:href="#p" />
<use x="254.482758620690" y="155.517241379310" width="14.137931034483" height="14.137931034483" xlink:href="#p" />
<use x="268.620689655172" y="155.517241379310" width="14.137931034483" height="14.137931034483" xlink:href="#p" />
<use x="282.758620689655" y="155.517241379310" width="14.137931034483" height="14.137931034483" xlink:href="#p" />
<use x="296.896551724138" y="155.517241379310" width="14.137931034483" height="14.137931034483" xlink:href="#p" />
<use x="325.172413793103" y="155.517241379310" width="14.137931034483" height="14.137931034483" xlink:href="#p" />
<use x="339.310344827586" y="155.517241379310" width="14.137931034483" height="14.137931034483" xlink:href="#p" />
<use x="353.448275862069" y="155.517241379310" width="14.137931034483" height="14.137931034483" xlink:href="#p" />
<use x="381.724137931034" y="155.517241379310" width="14.137931034483" height="14.137931034483" xlink:href="#p" />
<use x="395.862068965517" y="155.517241379310" width="14.137931034483" height="14.137931034483" xlink:href="#p" />
<use x="14.137931034483" y="169.655172413793" width="14.137931034483" height="14.137931034483" xlink:href="#p" />
<use x="28.275862068966" y="169.655172413793" width="14.137931034483" height="14.137931034483" xlink:href="#p" />
<use x="56.551724137931" y="169.655172413793" width="14.137931034483" height="14.137931034483" xlink:href="#p" />
<use x="84.827586206897" y="169.655172413793" width="14.137931034483" height="14.137931034483" xlink:href="#p" />
<use x="113.103448275862" y="169.655172413793" width="14.137931034483" height="14.137931034483" xlink:href="#p" />
<use x="127.241379310345" y="169.655172413793" width="14.137931034483" height="14.137931034483" xlink:href="#p" />
<use x="197.931034482759" y="169.655172413793" width="14.137931034483" height="14.137931034483" xlink:href="#p" />
<use x="212.068965517241" y="169.655172413793" width="14.137931034483" height="14.137931034483" xlink:href="#p" />
<use x="240.344827586207" y="169.655172413793" width="14.137931034483" height="14.137931034483" xlink:href="#p" />
<use x="268.620689655172" y="169.655172413793" width="14.137931034483" height="14.137931034483" xlink:href="#p" />
<use x="282.758620689655" y="169.655172413793" width="14.137931034483" height="14.137931034483" xlink:href="#p" />
<use x="325.172413793103" y="169.655172413793" width="14.137931034483" height="14.137931034483" xlink:href="#p" />
<use x="395.862068965517" y="169.655172413793" width="14.137931034483" height="14.137931034483" xlink:href="#p" />
<use x="0.000000000000" y="183.793103448276" width="14.137931034483" height="14.137931034483" xlink:href="#p" />
<use x="28.275862068966" y="183.793103448276" width="14.137931034483" height="14.137931034483" xlink:href="#p" />
<use x="42.413793103448" y="183.793103448276" width="14.137931034483" height="14.137931034483" xlink:href="#p" />
<use x="56.551724137931" y="183.793103448276" width="14.137931034483" height="14.137931034483" xlink:href="#p" />
<use x="70.689655172414" y="183.793103448276" width="14.137931034483" height="14.137931034483" xlink:href="#p" />
<use x="98.965517241379" y="183.793103448276" width="14.137931034483" height="14.137931034483" xlink:href="#p" />
<use x="113.103448275862" y="183.793103448276" width="14.137931034483" height="14.137931034483" xlink:href="#p" />
<use x="127.241379310345" y="183.793103448276" width="14.137931034483" height="14.137931034483" xlink:href="#p" />
<use x="169.655172413793" y="183.793103448276" width="14.137931034483" height="14.137931034483" xlink:href="#p" />
<use x="183.793103448276" y="183.793103448276" width="14.137931034483" height="14.137931034483" xlink:href="#p" />
<use x="240.344827586207" y="183.793103448276" width="14.137931034483" height="14.137931034483" xlink:href="#p" />
<use x="311.034482758621" y="183.793103448276" width="14.137931034483" height="14.137931034483" xlink:href="#p" />
<use x="339.310344827586" y="183.793103448276" width="14.137931034483" height="14.137931034483" xlink:href="#p" />
<use x="367.586206896552" y="183.793103448276" width="14.137931034483" height="14.137931034483" xlink:href="#p" />
<use x="395.862068965517" y="183.793103448276" width="14.137931034483" height="14.137931034483" xlink:href="#p" />
<use x="0.000000000000" y="197.931034482759" width="14.137931034483" height="14.137931034483" xlink:href="#p" />
<use x="28.275862068966" y="197.931034482759" width="14.137931034483" height="14.137931034483" xlink:href="#p" />
<use x="42.413793103448" y="197.931034482759" width="14.137931034483" height="14.137931034483" xlink:href="#p" />
<use x="84.827586206897" y="197.931034482759" width="14.137931034483" height="14.137931034483" xlink:href="#p" />
<use x="98.965517241379" y="197.931034482759" width="14.137931034483" height="14.137931034483" xlink:href="#p" />
<use x="113.103448275862" y="197.931034482759" width="14.137931034483" height="14.137931034483" xlink:href="#p" />
<use x="141.379310344828" y="197.931034482759" width="14.137931034483" height="14.137931034483" xlink:href="#p" />
<use x="155.517241379310" y="197.931034482759" width="14.137931034483" height="14.137931034483" xlink:href="#p" />
<use x="197.931034482759" y="197.931034482759" width="14.137931034483" height="14.137931034483" xlink:href="#p" />
<use x="212.068965517241" y="197.931034482759" width="14.137931034483" height="14.137931034483" xlink:href="#p" />
<use x="226.206896551724" y="197.931034482759" width="14.137931034483" height="14.137931034483" xlink:href="#p" />
<use x="240.344827586207" y="197.931034482759" width="14.137931034483" height="14.137931034483" xlink:href="#p" />
<use x="282.758620689655" y="197.931034482759" width="14.137931034483" height="14.137931034483" xlink:href="#p" />
<use x="296.896551724138" y="197.931034482759" width="14.137931034483" height="14.137931034483" xlink:href="#p" />
<use x="311.034482758621" y="197.931034482759" width="14.137931034483" height="14.137931034483" xlink:href="#p" />
<use x="339.310344827586" y="197.931034482759" width="14.137931034483" height="14.137931034483" xlink:href="#p" />
<use x="381.724137931034" y="197.931034482759" width="14.137931034483" height="14.137931034483" xlink:href="#p" />
<use x="395.862068965517" y="197.931034482759" width="14.137931034483" height="14.137931034483" xlink:href="#p" />
<use x="14.137931034483" y="212.068965517241" width="14.137931034483" height="14.137931034483" xlink:href="#p" />
<use x="28.275862068966" y="212.068965517241" width="14.137931034483" height="14.137931034483" xlink:href="#p" />
<use x="113.103448275862" y="212.068965517241" width="14.137931034483" height="14.137931034483" xlink:href="#p" />
<use x="127.241379310345" y="212.068965517241" width="14.137931034483" height="14.137931034483" xlink:href="#p" />
<use x="155.517241379310" y="212.068965517241" width="14.137931034483" height="14.137931034483" xlink:href="#p" />
<use x="197.931034482759" y="212.068965517241" width="14.137931034483" height="14.137931034483" xlink:href="#p" />
<use x="226.206896551724" y="212.068965517241" width="14.137931034483" height="14.137931034483" xlink:href="#p" />
<use x="240.344827586207" y="212.068965517241" width="14.137931034483" height="14.137931034483" xlink:href="#p" />
<use x="254.482758620690" y="212.068965517241" width="14.137931034483" height="14.137931034483" xlink:href="#p" />
<use x="325.172413793103" y="212.068965517241" width="14.137931034483" height="14.137931034483" xlink:href="#p" />
<use x="353.448275862069" y="212.068965517241" width="14.137931034483" height="14.137931034483" xlink:href="#p" />
<use x="395.862068965517" y="212.068965517241" width="14.137931034483" height="14.137931034483" xlink:href="#p" />
<use x="84.827586206897" y="226.206896551724" width="14.137931034483" height="14.137931034483" xlink:href="#p" />
<use x="98.965517241379" y="226.206896551724" width="14.137931034483" height="14.137931034483" xlink:href="#p" />
<use x="169.655172413793" y="226.206896551724" width="14.137931034483" height="14.137931034483" xlink:href="#p" />
<use x="226.206896551724" y="226.206896551724" width="14.137931034483" height="14.137931034483" xlink:href="#p" />
<use x="240.344827586207" y="226.206896551724" width="14.137931034483" height="14.137931034483" xlink:href="#p" />
<use x="268.620689655172" y="226.206896551724" width="14.137931034483" height="14.137931034483" xlink:href="#p" />
<use x="296.896551724138" y="226.206896551724" width="14.137931034483" height="14.137931034483" xlink:href="#p" />
<use x="339.310344827586" y="226.206896551724" width="14.137931034483" height="14.137931034483" xlink:href="#p" />
<use x="381.724137931034" y="226.206896551724" width="14.137931034483" height="14.137931034483" xlink:href="#p" />
<use x="395.862068965517" y="226.206896551724" width="14.137931034483" height="14.137931034483" xlink:href="#p" />
<use x="0.000000000000" y="240.344827586207" width="14.137931034483" height="14.137931034483" xlink:href="#p" />
<use x="14.137931034483" y="240.344827586207" width="14.137931034483" height="14.137931034483" xlink:href="#p" />
<use x="42.413793103448" y="240.344827586207" width="14.137931034483" height="14.137931034483" xlink:href="#p" />
<use x="56.551724137931" y="240.344827586207" width="14.137931034483" height="14.137931034483" xlink:href="#p" />
<use x="98.965517241379" y="240.344827586207" width="14.137931034483" height="14.137931034483" xlink:href="#p" />
<use x="113.103448275862" y="240.344827586207" width="14.137931034483" height="14.137931034483" xlink:href="#p" />
<use x="127.241379310345" y="240.344827586207" width="14.137931034483" height="14.137931034483" xlink:href="#p" />
<use x="141.379310344828" y="240.344827586207" width="14.137931034483" height="14.137931034483" xlink:href="#p" />
<use x="155.517241379310" y="240.344827586207" width="14.137931034483" height="14.137931034483" xlink:href="#p" />
<use x="169.655172413793" y="240.344827586207" width="14.137931034483" height="14.137931034483" xlink:href="#p" />
<use x="197.931034482759" y="240.344827586207" width="14.137931034483" height="14.137931034483" xlink:href="#p" />
<use x="282.758620689655" y="240.344827586207" width="14.137931034483" height="14.137931034483" xlink:href="#p" />
<use x="325.172413793103" y="240.344827586207" width="14.137931034483" height="14.137931034483" xlink:href="#p" />
<use x="339.310344827586" y="240.344827586207" width="14.137931034483" height="14.137931034483" xlink:href="#p" />
<use x="353.448275862069" y="240.344827586207" width="14.137931034483" height="14.137931034483" xlink:href="#p" />
<use x="367.586206896552" y="240.344827586207" width="14.137931034483" height="14.137931034483" xlink:href="#p" />
<use x="395.862068965517" y="240.344827586207" width="14.137931034483" height="14.137931034483" xlink:href="#p" />
<use x="28.275862068966" y="254.482758620690" width="14.137931034483" height="14.137931034483" xlink:href="#p" />
<use x="70.689655172414" y="254.482758620690" width="14.137931034483" height="14.137931034483" xlink:href="#p" />
<use x="84.827586206897" y="254.482758620690" width="14.137931034483" height="14.137931034483" xlink:href="#p" />
<use x="141.379310344828" y="254.482758620690" width="14.137931034483" height="14.137931034483" xlink:href="#p" />
<use x="169.655172413793" y="254.482758620690" width="14.137931034483" height="14.137931034483" xlink:href="#p" />
<use x="212.068965517241" y="254.482758620690" width="14.137931034483" height="14.137931034483" xlink:href="#p" />
<use x="240.344827586207" y="254.482758620690" width="14.137931034483" height="14.137931034483" xlink:href="#p" />
<use x="282.758620689655" y="254.482758620690" width="14.137931034483" height="14.137931034483" xlink:href="#p" />
<use x="339.310344827586" y="254.482758620690" width="14.137931034483" height="14.137931034483" xlink:href="#p" />
<use x="353.448275862069" y="254.482758620690" width="14.137931034483" height="14.137931034483" xlink:href="#p" />
<use x="395.862068965517" y="254.482758620690" width="14.137931034483" height="14.137931034483" xlink:href="#p" />
<use x="28.275862068966" y="268.620689655172" width="14.137931034483" height="14.137931034483" xlink:href="#p" />
<use x="42.413793103448" y="268.620689655172" width="14.137931034483" height="14.137931034483" xlink:href="#p" />
<use x="56.551724137931" y="268.620689655172" width="14.137931034483" height="14.137931034483" xlink:href="#p" />
<use x="70.689655172414" y="268.620689655172" width="14.137931034483" height="14.137931034483" xlink:href="#p" />
<use x="127.241379310345" y="268.620689655172" width="14.137931034483" height="14.137931034483" xlink:href="#p" />
<use x="169.655172413793" y="268.620689655172" width="14.137931034483" height="14.137931034483" xlink:href="#p" />
<use x="183.793103448276" y="268.620689655172" width="14.137931034483" height="14.137931034483" xlink:href="#p" />
<use x="212.068965517241" y="268.620689655172" width="14.137931034483" height="14.137931034483" xlink:href="#p" />
<use x="226.206896551724" y="268.620689655172" width="14.137931034483" height="14.137931034483" xlink:href="#p" />
<use x="240.344827586207" y="268.620689655172" width="14.137931034483" height="14.137931034483" xlink:href="#p" />
<use x="254.482758620690" y="268.620689655172" width="14.137931034483" height="14.137931034483" xlink:href="#p" />
<use x="268.620689655172" y="268.620689655172" width="14.137931034483" height="14.137931034483" xlink:href="#p" />
<use x="325.172413793103" y="268.620689655172" width="14.137931034483" height="14.137931034483" xlink:href="#p" />
<use x="381.724137931034" y="268.620689655172" width="14.137931034483" height="14.137931034483" xlink:href="#p" />
<use x="0.000000000000" y="282.758620689655" width="14.137931034483" height="14.137931034483" xlink:href="#p" />
<use x="14.137931034483" y="282.758620689655" width="14.137931034483" height="14.137931034483" xlink:href="#p" />
<use x="56.551724137931" y="282.758620689655" width="14.137931034483" height="14.137931034483" xlink:href="#p" />
<use x="84.827586206897" y="282.758620689655" width="14.137931034483" height="14.137931034483" xlink:href="#p" />
<use x="113.103448275862" y="282.758620689655" width="14.137931034483" height="14.137931034483" xlink:href="#p" />
<use x="169.655172413793" y="282.758620689655" width="14.137931034483" height="14.137931034483" xlink:href="#p" />
<use x="240.344827586207" y="282.758620689655" width="14.137931034483" height="14.137931034483" xlink:href="#p" />
<use x="254.482758620690" y="282.758620689655" width="14.137931034483" height="14.137931034483" xlink:href="#p" />
<use x="268.620689655172" y="282.758620689655" width="14.137931034483" height="14.137931034483" xlink:href="#p" />
<use x="282.758620689655" y="282.758620689655" width="14.137931034483" height="14.137931034483" xlink:href="#p" />
<use x="296.896551724138" y="282.758620689655" width="14.137931034483" height="14.137931034483" xlink:href="#p" />
<use x="311.034482758621" y="282.758620689655" width="14.137931034483" height="14.137931034483" xlink:href="#p" />
<use x="325.172413793103" y="282.758620689655" width="14.137931034483" height="14.137931034483" xlink:href="#p" />
<use x="339.310344827586" y="282.758620689655" width="14.137931034483" height="14.137931034483" xlink:href="#p" />
<use x="353.448275862069" y="282.758620689655" width="14.137931034483" height="14.137931034483" xlink:href="#p" />
<use x="381.724137931034" y="282.758620689655" width="14.137931034483" height="14.137931034483" xlink:href="#p" />
<use x="395.862068965517" y="282.758620689655" width="14.137931034483" height="14.137931034483" xlink:href="#p" />
<use x="113.103448275862" y="296.896551724138" width="14.137931034483" height="14.137931034483" xlink:href="#p" />
<use x="155.517241379310" y="296.896551724138" width="14.137931034483" height="14.137931034483" xlink:href="#p" />
<use x="183.793103448276" y="296.896551724138" width="14.137931034483" height="14.137931034483" xlink:href="#p" />
<use x="212.068965517241" y="296.896551724138" width="14.137931034483" height="14.137931034483" xlink:href="#p" />
<use x="226.206896551724" y="296.896551724138" width="14.137931034483" height="14.137931034483" xlink:href="#p" />
<use x="254.482758620690" y="296.896551724138" width="14.137931034483" height="14.137931034483" xlink:href="#p" />
<use x="282.758620689655" y="296.896551724138" width="14.137931034483" height="14.137931034483" xlink:href="#p" />
<use x="339.310344827586" y="296.896551724138" width="14.137931034483" height="14.137931034483" xlink:href="#p" />
<use x="367.586206896552" y="296.896551724138" width="14.137931034483" height="14.137931034483" xlink:href="#p" />
<use x="395.862068965517" y="296.896551724138" width="14.137931034483" height="14.137931034483" xlink:href="#p" />
<use x="0.000000000000" y="311.034482758621" width="14.137931034483" height="14.137931034483" xlink:href="#p" />
<use x="14.137931034483" y="311.034482758621" width="14.137931034483" height="14.137931034483" xlink:href="#p" />
<use x="28.275862068966" y="311.034482758621" width="14.137931034483" height="14.137931034483" xlink:href="#p" />
<use x="42.413793103448" y="311.034482758621" width="14.137931034483" height="14.137931034483" xlink:href="#p" />
<use x="56.551724137931" y="311.034482758621" width="14.137931034483" height="14.137931034483" xlink:href="#p" />
<use x="70.689655172414" y="311.034482758621" width="14.137931034483" height="14.137931034483" xlink:href="#p" />
<use x="84.827586206897" y="311.034482758621" width="14.137931034483" height="14.137931034483" xlink:href="#p" />
<use x="127.241379310345" y="311.034482758621" width="14.137931034483" height="14.137931034483" xlink:href="#p" />
<use x="141.379310344828" y="311.034482758621" width="14.137931034483" height="14.137931034483" xlink:href="#p" />
<use x="183.793103448276" y="311.034482758621" width="14.137931034483" height="14.137931034483" xlink:href="#p" />
<use x="197.931034482759" y="311.034482758621" width="14.137931034483" height="14.137931034483" xlink:href="#p" />
<use x="212.068965517241" y="311.034482758621" width="14.137931034483" height="14.137931034483" xlink:href="#p" />
<use x="268.620689655172" y="311.034482758621" width="14.137931034483" height="14.137931034483" xlink:href="#p" />
<use x="282.758620689655" y="311.034482758621" width="14.137931034483" height="14.137931034483" xlink:href="#p" />
<use x="311.034482758621" y="311.034482758621" width="14.137931034483" height="14.137931034483" xlink:href="#p" />
<use x="339.310344827586" y="311.034482758621" width="14.137931034483" height="14.137931034483" xlink:href="#p" />
<use x="395.862068965517" y="311.034482758621" width="14.137931034483" height="14.137931034483" xlink:href="#p" />
<use x="0.000000000000" y="325.172413793103" width="14.137931034483" height="14.137931034483" xlink:href="#p" />
<use x="84.827586206897" y="325.172413793103" width="14.137931034483" height="14.137931034483" xlink:href="#p" />
<use x="141.379310344828" y="325.172413793103" width="14.137931034483" height="14.137931034483" xlink:href="#p" />
<use x="226.206896551724" y="325.172413793103" width="14.137931034483" height="14.137931034483" xlink:href="#p" />
<use x="240.344827586207" y="325.172413793103" width="14.137931034483" height="14.137931034483" xlink:href="#p" />
<use x="254.482758620690" y="325.172413793103" width="14.137931034483" height="14.137931034483" xlink:href="#p" />
<use x="268.620689655172" y="325.172413793103" width="14.137931034483" height="14.137931034483" xlink:href="#p" />
<use x="282.758620689655" y="325.172413793103" width="14.137931034483" height="14.137931034483" xlink:href="#p" />
<use x="339.310344827586" y="325.172413793103" width="14.137931034483" height="14.137931034483" xlink:href="#p" />
<use x="353.448275862069" y="325.172413793103" width="14.137931034483" height="14.137931034483" xlink:href="#p" />
<use x="0.000000000000" y="339.310344827586" width="14.137931034483" height="14.137931034483" xlink:href="#p" />
<use x="28.275862068966" y="339.310344827586" width="14.137931034483" height="14.137931034483" xlink:href="#p" />
<use x="42.413793103448" y="339.310344827586" width="14.137931034483" height="14.137931034483" xlink:href="#p" />
<use x="56.551724137931" y="339.310344827586" width="14.137931034483" height="14.137931034483" xlink:href="#p" />
<use x="84.827586206897" y="339.310344827586" width="14.137931034483" height="14.137931034483" xlink:href="#p" />
<use x="113.103448275862" y="339.310344827586" width="14.137931034483" height="14.137931034483" xlink:href="#p" />
<use x="127.241379310345" y="339.310344827586" width="14.137931034483" height="14.137931034483" xlink:href="#p" />
<use x="155.517241379310" y="339.310344827586" width="14.137931034483" height="14.137931034483" xlink:href="#p" />
<use x="169.655172413793" y="339.310344827586" width="14.137931034483" height="14.137931034483" xlink:href="#p" />
<use x="183.793103448276" y="339.310344827586" width="14.137931034483" height="14.137931034483" xlink:href="#p" />
<use x="197.931034482759" y="339.310344827586" width="14.137931034483" height="14.137931034483" xlink:href="#p" />
<use x="254.482758620690" y="339.310344827586" width="14.137931034483" height="14.137931034483" xlink:href="#p" />
<use x="268.620689655172" y="339.310344827586" width="14.137931034483" height="14.137931034483" xlink:href="#p" />
<use x="282.758620689655" y="339.310344827586" width="14.137931034483" height="14.137931034483" xlink:href="#p" />
<use x="296.896551724138" y="339.310344827586" width="14.137931034483" height="14.137931034483" xlink:href="#p" />
<use x="311.034482758621" y="339.310344827586" width="14.137931034483" height="14.137931034483" xlink:href="#p" />
<use x="325.172413793103" y="339.310344827586" width="14.137931034483" height="14.137931034483" xlink:href="#p" />
<use x="339.310344827586" y="339.310344827586" width="14.137931034483" height="14.137931034483" xlink:href="#p" />
<use x="381.724137931034" y="339.310344827586" width="14.137931034483" height="14.137931034483" xlink:href="#p" />
<use x="395.862068965517" y="339.310344827586" width="14.137931034483" height="14.137931034483" xlink:href="#p" />
<use x="0.000000000000" y="353.448275862069" width="14.137931034483" height="14.137931034483" xlink:href="#p" />
<use x="28.275862068966" y="353.448275862069" width="14.137931034483" height="14.137931034483" xlink:href="#p" />
<use x="42.413793103448" y="353.448275862069" width="14.137931034483" height="14.137931034483" xlink:href="#p" />
<use x="56.551724137931" y="353.448275862069" width="14.137931034483" height="14.137931034483" xlink:href="#p" />
<use x="84.827586206897" y="353.448275862069" width="14.137931034483" height="14.137931034483" xlink:href="#p" />
<use x="141.379310344828" y="353.448275862069" width="14.137931034483" height="14.137931034483" xlink:href="#p" />
<use x="155.517241379310" y="353.448275862069" width="14.137931034483" height="14.137931034483" xlink:href="#p" />
<use x="183.793103448276" y="353.448275862069" width="14.137931034483" height="14.137931034483" xlink:href="#p" />
<use x="226.206896551724" y="353.448275862069" width="14.137931034483" height="14.137931034483" xlink:href="#p" />
<use x="240.344827586207" y="353.448275862069" width="14.137931034483" height="14.137931034483" xlink:href="#p" />
<use x="254.482758620690" y="353.448275862069" width="14.137931034483" height="14.137931034483" xlink:href="#p" />
<use x="325.172413793103" y="353.448275862069" width="14.137931034483" height="14.137931034483" xlink:href="#p" />
<use x="381.724137931034" y="353.448275862069" width="14.137931034483" height="14.137931034483" xlink:href="#p" />
<use x="0.000000000000" y="367.586206896552" width="14.137931034483" height="14.137931034483" xlink:href="#p" />
<use x="28.275862068966" y="367.586206896552" width="14.137931034483" height="14.137931034483" xlink:href="#p" />
<use x="42.413793103448" y="367.586206896552" width="14.137931034483" height="14.137931034483" xlink:href="#p" />
<use x="56.551724137931" y="367.586206896552" width="14.137931034483" height="14.137931034483" xlink:href="#p" />
<use x="84.827586206897" y="367.586206896552" width="14.137931034483" height="14.137931034483" xlink:href="#p" />
<use x="141.379310344828" y="367.586206896552" width="14.137931034483" height="14.137931034483" xlink:href="#p" />
<use x="169.655172413793" y="367.586206896552" width="14.137931034483" height="14.137931034483" xlink:href="#p" />
<use x="197.931034482759" y="367.586206896552" width="14.137931034483" height="14.137931034483" xlink:href="#p" />
<use x="226.206896551724" y="367.586206896552" width="14.137931034483" height="14.137931034483" xlink:href="#p" />
<use x="254.482758620690" y="367.586206896552" width="14.137931034483" height="14.137931034483" xlink:href="#p" />
<use x="268.620689655172" y="367.586206896552" width="14.137931034483" height="14.137931034483" xlink:href="#p" />
<use x="282.758620689655" y="367.586206896552" width="14.137931034483" height="14.137931034483" xlink:href="#p" />
<use x="296.896551724138" y="367.586206896552" width="14.137931034483" height="14.137931034483" xlink:href="#p" />
<use x="353.448275862069" y="367.586206896552" width="14.137931034483" height="14.137931034483" xlink:href="#p" />
<use x="367.586206896552" y="367.586206896552" width="14.137931034483" height="14.137931034483" xlink:href="#p" />
<use x="381.724137931034" y="367.586206896552" width="14.137931034483" height="14.137931034483" xlink:href="#p" />
<use x="395.862068965517" y="367.586206896552" width="14.137931034483" height="14.137931034483" xlink:href="#p" />
<use x="0.000000000000" y="381.724137931034" width="14.137931034483" height="14.137931034483" xlink:href="#p" />
<use x="84.827586206897" y="381.724137931034" width="14.137931034483" height="14.137931034483" xlink:href="#p" />
<use x="113.103448275862" y="381.724137931034" width="14.137931034483" height="14.137931034483" xlink:href="#p" />
<use x="141.379310344828" y="381.724137931034" width="14.137931034483" height="14.137931034483" xlink:href="#p" />
<use x="155.517241379310" y="381.724137931034" width="14.137931034483" height="14.137931034483" xlink:href="#p" />
<use x="183.793103448276" y="381.724137931034" width="14.137931034483" height="14.137931034483" xlink:href="#p" />
<use x="240.344827586207" y="381.724137931034" width="14.137931034483" height="14.137931034483" xlink:href="#p" />
<use x="268.620689655172" y="381.724137931034" width="14.137931034483" height="14.137931034483" xlink:href="#p" />
<use x="282.758620689655" y="381.724137931034" width="14.137931034483" height="14.137931034483" xlink:href="#p" />
<use x="296.896551724138" y="381.724137931034" width="14.137931034483" height="14.137931034483" xlink:href="#p" />
<use x="311.034482758621" y="381.724137931034" width="14.137931034483" height="14.137931034483" xlink:href="#p" />
<use x="325.172413793103" y="381.724137931034" width="14.137931034483" height="14.137931034483" xlink:href="#p" />
<use x="353.448275862069" y="381.724137931034" width="14.137931034483" height="14.137931034483" xlink:href="#p" />
<use x="381.724137931034" y="381.724137931034" width="14.137931034483" height="14.137931034483" xlink:href="#p" />
<use x="395.862068965517" y="381.724137931034" width="14.137931034483" height="14.137931034483" xlink:href="#p" />
<use x="0.000000000000" y="395.862068965517" width="14.137931034483" height="14.137931034483" xlink:href="#p" />
<use x="14.137931034483" y="395.862068965517" width="14.137931034483" height="14.137931034483" xlink:href="#p" />
<use x="28.275862068966" y="395.862068965517" width="14.137931034483" height="14.137931034483" xlink:href="#p" />
<use x="42.413793103448" y="395.862068965517" width="14.137931034483" height="14.137931034483" xlink:href="#p" />
<use x="56.551724137931" y="395.862068965517" width="14.137931034483" height="14.137931034483" xlink:href="#p" />
<use x="70.689655172414" y="395.862068965517" width="14.137931034483" height="14.137931034483" xlink:href="#p" />
<use x="84.827586206897" y="395.862068965517" width="14.137931034483" height="14.137931034483" xlink:href="#p" />
<use x="183.793103448276" y="395.862068965517" width="14.137931034483" height="14.137931034483" xlink:href="#p" />
<use x="197.931034482759" y="395.862068965517" width="14.137931034483" height="14.137931034483" xlink:href="#p" />
<use x="212.068965517241" y="395.862068965517" width="14.137931034483" height="14.137931034483" xlink:href="#p" />
<use x="240.344827586207" y="395.862068965517" width="14.137931034483" height="14.137931034483" xlink:href="#p" />
<use x="282.758620689655" y="395.862068965517" width="14.137931034483" height="14.137931034483" xlink:href="#p" />
<use x="296.896551724138" y="395.862068965517" width="14.137931034483" height="14.137931034483" xlink:href="#p" />
<use x="339.310344827586" y="395.862068965517" width="14.137931034483" height="14.137931034483" xlink:href="#p" />
<use x="353.448275862069" y="395.862068965517" width="14.137931034483" height="14.137931034483" xlink:href="#p" />
<use x="381.724137931034" y="395.862068965517" width="14.137931034483" height="14.137931034483" xlink:href="#p" />
</g>
</svg>